<?xml version="1.0" encoding="UTF-8"?>
<svg id="uuid-c250790e-6947-4c06-bc7f-347d5b7fc764" data-name="レイヤー 1" xmlns="http://www.w3.org/2000/svg" width="1000" height="240" viewBox="0 0 1000 240">
  <path d="m453.78319,9.69831c-7.55326-2.49259-15.06233-3.18823-22.80978-3.32068-.63827-.43828-1.30499-1.30903-.80469-2.14246,11.94179-.95441,24.27009.61544,36.24885-.95231,12.30839.94388,24.64644,2.09374,36.30262,6.88904,36.9294,14.87395,68.6552,48.83844,77.67724,87.89283,1.53839-22.11573.13965-44.94947.4711-67.32382.01364-16.18293-7.70769-23.60315-23.6862-24.55071-.30092-.86127-.48523-1.87869.78683-2.75074,5.84002,1.27497,59.09359-3.03377,54.84107,2.57673-6.17909,2.87895-15.74009-.34237-19.57047,7.19412-3.53767,5.765-2.80175,12.64722-4.24518,18.9657-.18471,41.80375.00268,83.71908-.06555,125.56974-1.47434.50568-2.99924.11084-4.58877.24924-13.77353-62.76954-43.49293-136.16405-117.27868-140.96085.35887,36.45994-2.2981,73.67898,1.58286,109.98765,1.78719,16.12614,14.70804,20.38965,29.15075,19.92117.57578.88658.25932,1.80642.29497,2.65818-12.69487,1.13525-26.17817.01644-39.13144.3975-7.66698-.00102-15.33388-.00087-22.9174-.00087-1.25026-.5757-1.18436-1.60346-1.05584-2.73202,14.41947-3.97629,19.2078-4.57932,22.12552-21.00244,2.10346-16.4577,2.29053-33.04203,2.32397-49.57692.25233-15.02171-.22959-30.06153.09076-45.0801-.46098-7.55935.69843-16.49134-5.74251-21.908Z" style="fill: #fff; stroke-width: 0px;"/>
  <path d="m150.60627,98.99072c.70247-21.21578.16896-42.74835.15421-64.07012-.06368-5.30071-.45436-10.71644-2.33539-15.84246-2.90351-9.39422-12.27259-12.30855-21.2427-12.74795-.45187-.83959-.21105-1.74115-.18246-2.60568.43715-.43547,39.46615-.64374,54.82994-.31253.62382.79836.24114,1.73767.32348,2.6062-6.45948,2.96494-16.07925-.22824-19.68891,7.8872-6.14352,16.96968-3.50591,35.91049-4.18744,53.65148-.16082,30.09702.037,60.17673-.03262,90.27847h-4.69154c-11.50654-58.6525-40.18606-127.68675-105.612-139.72676-4.06457.27633-7.56837-1.77488-11.79338-1.00649.83014,36.32988-2.02393,73.02751,1.84756,109.08367,2.21577,16.19603,13.72523,21.70373,28.9706,20.68121q1.27142,1.53808.17546,3.065H5.17538c-.6243-.73507-.21198-1.67753-.32227-2.69143,7.57193-2.31974,17.11681-3.10247,19.66275-12.25101,6.50414-21.41045,3.6576-44.37489,4.2281-66.50914-.69539-17.44814,1.84696-35.52535-1.24179-52.67877-2.40469-8.70683-12.43467-7.6059-19.57757-9.29256-2.53406-.71082-5.70072.84328-7.92459-1.03712v-1.16762c21.74941-.17367,44.63841-3.20682,65.83591,3.76087,41.10548,13.05033,74.09813,49.34635,84.77037,90.92555Z" style="fill: #fff; stroke-width: 0px;"/>
  <path d="m675.88044,149.99014c9.00476.6955,17.99731-3.99388,18.7186-13.7168,1.21973-36.28961.09717-72.68954.45438-109.0225-.03777-13.45103-7.07323-18.0262-19.76366-18.24818-.87445-1.11504-.45041-1.81769.45625-2.48989,30.61802-.22177,61.26814-.00882,91.89564-.08819,3.62256-.15735,8.29668-1.43463,9.22292-5.464h2.11603v41.51468c-1.39788.37256-2.91618.00607-4.61491.23846-1.3736-33.19042-32.6569-34.30945-58.40949-33.93592-.86142.4728-.47587,1.39705-1.27842,1.54265-2.14459,26.12031-5.31496,59.91258,29.20537,63.69743,6.09409.92638,12.16799.09863,18.43092.62872,1.66914,1.02779.49579,2.86563.88097,4.23707-.51392,1.09018-1.34313,1.20387-2.32932,1.19559-9.81843-.24821-19.75789-.426-29.06941,3.3094-24.82939,10.25175-20.95942,43.0524-18.28722,64.76054,28.30308,1.87371,59.759-4.36402,69.46003-34.76413,1.40439.71658,2.93408.23779,4.38865.46097.58439.47887.45864,1.18166.3159,1.70254-1.27663,4.65557-2.11288,9.40334-3.14176,14.10946-2.42014,9.32304-3.85659,19.04856-6.36411,28.24664h-2.452c-.69262-3.40097-4.25859-5.55885-7.65395-5.45277-30.95827.01407-61.92282.00585-92.88046.00453-.75005-1.06535-.30586-1.75684.69905-2.4663Z" style="fill: #fff; stroke-width: 0px;"/>
  <path d="m923.41376,5.85926h5.13833c10.90025,29.00772,22.126,57.92544,33.36154,86.82796,7.73504,16.08106,17.11321,60.33916,37.00956,62.23351,1.31669.80577,1.15844,1.79271.90276,2.93363h-45.16594c-.88971-.86958-.83692-1.46524.22618-2.31846,9.66372.93325,6.78609-10.91114,7.00803-17.26465-.64667-8.92081-2.97587-17.83074-7.30737-25.69955-10.2615-20.27463-35.17888-26.51906-56.095-24.65717-5.92481,13.09091-11.3191,26.40911-14.887,40.31536-5.23058,16.45784,4.19857,27.54654,21.1718,26.67286v2.94157h-53.60563c-.6732-.79802-.25178-2.5765.65241-2.83365,20.74871-6.7608,25.62753-32.0345,33.6731-49.76233,12.86073-33.03249,24.40775-66.63508,37.91725-99.38908Zm-5.91692,26.65584c-6.39332,15.73877-11.27146,31.37134-16.95989,47.09387,12.06688.39191,23.185.72985,35.3444.28504-6.09442-15.89053-12.19969-31.45397-18.38451-47.37892Z" style="fill: #fff; stroke-width: 0px;"/>
  <path d="m370.36666,155.73301c.18424.74279.3144,1.42484-.12758,2.13438h-45.48004c-.56466-1.0115-.17911-1.6472.67059-2.2748,11.19422,1.17372,6.38422-17.55818,5.92364-24.15123-2.69225-19.61176-16.70648-37.60382-36.62513-41.5851-7.38962-1.71162-15.01565-2.27592-22.58704-2.42565-1.10721-.03097-2.25787-.19753-3.17497.86134-2.84178,5.87768-5.36762,12.05466-7.74513,18.30886-7.81574,20.04182-18.986,48.05654,13.83757,48.33376.6755.8588.16095,1.80245.37256,2.57145-17.43853,1.35343-35.84052.01586-53.61005.47175-1.52402-2.16213.97079-3.53553,2.66228-3.58692,18.01068-7.93223,23.04611-29.56941,30.30962-46.08781,13.27846-34.00006,25.23792-68.4938,38.88493-102.35771h4.81824c12.05892,28.36503,22.14576,57.85886,33.76236,86.50876,4.88804,12.41359,9.30137,25.05761,14.40198,37.36904,5.05441,10.8434,10.9356,23.19946,23.70619,25.90987Zm-64.54255-75.67817c-4.53742-15.73504-12.11061-31.43602-17.74923-47.35135-6.83276,15.0537-11.30681,30.99205-16.91967,46.547,11.51087,1.57515,23.09938.47542,34.6689.80435Z" style="fill: #fff; stroke-width: 0px;"/>
  <g>
    <path d="m251.57691,236.15326c.78289,2.01509,4.19161-.25165,3.5454,2.43956-4.09792.60901-8.75425.02198-13.20184.22071-.48504-.34316-.29557-.90875-.03531-1.50962,1.65238-.37357,2.91046.10544,4.07751-1.66525-.34061-8.14715.83202-16.49424-.54721-24.56213-1.33811-.46568-2.57059-.89467-3.81846-1.32898,1.19212-1.78101,10.59514-.27727,13.38678-.75103.76179,1.54752-2.36611,1.08838-3.29113,2.39216-.46261,3.57397-1.2494,7.11161-.64438,10.87349h15.01743v-10.71022c-.69261-1.28524-2.80092-.55825-3.64096-2.31352,4.46187-.8511,8.98862-.13822,13.40158-.34316.23266.72661.16907,1.21289-.3302,1.17949-1.06547-.07137-1.79238.9417-2.84485.7723-2.29748,7.71154-.2481,16.46347-.91321,24.66286.42423.45101.90617.9635,1.52628,1.62278h2.41466c.46108.63277.39809,1.10153.12986,1.70194h-13.00045c-.45329-.41453-.28089-.91212-.18319-1.43195,1.01914-.78817,2.76557.44239,3.54038-1.40769v-11.36344c-4.60975-1.00554-10.02122-.04312-15.02417-.3663-.90235,4.00393.2956,7.94405.43547,11.88799Z" style="fill: #fff; stroke-width: 0px;"/>
    <path d="m739.91223,238.81353v-1.3799c.84075-.65996,1.94677-.08343,2.92764-.43962.79192-1.30861,1.30838-2.64979,1.30524-4.18607-.42342-7.22824.92523-14.79701-.77552-21.81101-1.10692-.64723-2.60118-.4707-3.54865-1.40334.32189-.89752.90194-.69171,1.36238-.69306,6.62948.5033,13.83101-1.51085,19.95224,1.70503,5.71923,4.51656,2.21181,12.84119-4.74694,13.72832,4.46527,4.6174,7.39402,10.95775,13.56484,13.39439q-1.30052,1.24749-7.87537,1.21821c-3.46335-4.24943-7.05747-8.65935-10.65166-13.06928-.49781-.7159-1.57463-.10605-2.47199-1.55028.86596,4.77252-2.24303,13.14728,4.13966,12.94736.4032.42561.27169.90882.09487,1.53927h-13.27673Zm9.29437-28.01941v12.94488c3.5788-1.23642,7.91633.05787,9.04126-4.47364,1.05771-6.31237-3.0763-9.44291-9.04126-8.47124Z" style="fill: #fff; stroke-width: 0px;"/>
    <path d="m434.02791,227.93877h-10.41084c-1.24959,2.2363-1.94299,4.77001-2.71569,7.44017.17162.36181.42359.8931.73496,1.54954,1.20107.6142,3.44348-.62011,2.80175,1.86798-3.09503.36623-6.23215.03879-9.26763.18341-.63374-.39326-.4734-.92658-.45483-1.52332.94028-.6136,2.27001-.50935,3.46814-1.70232,1.46345-3.82464,3.5348-7.83935,5.15395-12.07799,1.62284-2.50522,4.78437-16.48164,7.44422-15.37828,1.05471.39489,1.30208,1.48271,1.65415,2.35529,1.94516,4.82176,3.78775,9.68486,5.66449,14.53418,2.36102,3.83139,2.41038,11.97228,8.10657,11.94573.52687.58169.39869,1.06183.20745,1.68532h-13.06141c-.42809-.35664-.2461-.86771-.19229-1.3507.66684-.6754,1.76019-.23332,2.56677-.35012.46819-.34601.89336-.63225,1.07977-1.35047-.86576-2.52801-1.55141-5.2849-2.77954-7.82841Zm-9.72646-1.89105c3.12976-.30902,6.39549.63132,8.69882-.39768-.84798-3.69095-2.85159-6.88843-3.97191-10.92404-1.98755,3.83182-3.13244,7.46144-4.72691,11.32172Z" style="fill: #fff; stroke-width: 0px;"/>
    <path d="m589.53175,234.74122v-20.33764c-.24977-3.66654-2.63773-3.88612-4.57881-4.83187,2.01642-.81566,10.13527-.95736,13.70025-.37387.11144.43685.05729.92792-.45505.87992-1.02235.0267-2.05664.72208-2.80167,1.22345-1.32104,3.58311-.89917,7.13393-.93362,10.64462.21857,4.86701-.79013,10.23487,1.0861,14.80597,1.30237.87542,3.68063-.46969,3.16281,1.82657-.52882.52732-8.61928.6288-13.26924.16611-.28766-.46209-.27059-.92807.00262-1.42926,2.56328-.51004,2.8925.32739,4.08661-2.574Z" style="fill: #fff; stroke-width: 0px;"/>
  </g>
  <path d="m711.64053,160.50803c-19.63786,3.57494-35.37729,3.82652-50.49895-10.89813-9.26537-6.38722-28.86998-6.83775-39.81173,1.67407-2.76203,2.14867-5.77418,3.79966-9.26875,4.40067-7.21983,1.24178-14.84156-1.91139-11.45115-12.49061,2.63173-5.22918,7.90235-9.86463,4.40746-16.06312-1.49431-3.36105-4.66675-3.33309-7.78532-3.36221-5.82328-.05446-9.83333,3.23425-13.46122,7.17621-4.05792,4.68232-10.15288,2.96439-14.93229.31387.34847,8.24089,11.97692,8.82736,16.27223,4.11195,7.46903-7.48559,18.30626-3.71711,12.20323,7.08687-.79383.66326-1.14695-.09181-1.57508-.41891-5.72508-4.37413-11.91661-2.69247-17.70688-.73282-9.94452,2.24957-14.01583,14.28882-24.30695,15.48098-7.59349,1.05594-8.45346-9.07088-5.76262-14.078.43702-1.08153,1.25513-2.14927.63084-3.58562-9.76186,9.42646-23.09294,44.34143-39.68476,35.64794-7.05386-6.63098-.14921-17.15589,3.24517-23.99364,1.57023-3.05469,2.7811-6.5089,5.95763-8.301,1.94285-1.09607,1.6322-2.72259,1.46138-4.16085-1.41296-3.85814-8.30576-1.76004-9.85081,1.33259-3.03129,4.45954-7.78167,5.58874-11.39196,1.57063-.14857-.16534-.56867-.08684-1.13774-.15493.24316,2.91931,1.88756,4.80106,4.15223,5.83397,4.72074,2.15312,7.03816-1.9715,9.8518-4.48294.6281.82379.12005,1.15895-.15163,1.61103-9.05761,13.33676-14.90488,32.13001-35.55788,32.16326-9.0559-.68268-5.99175-12.05231-.75451-15.62308,6.11335-5.2494,8.72817-17.06722-.95679-19.80585-8.35057-2.20325-11.54442,5.25099-17.99405,7.91928,7.75652-24.17172,15.63472-14.45408,25.71363-30.34757,4.58432-9.70561-6.03629-15.48257-13.18397-9.00442-8.41656,8.69543-5.71252,22.87961-14.40271,31.35373-6.55534,7.10184-19.38953,19.79668-29.69543,19.27417-8.20784-.7269-11.45762-6.46719-7.54514-13.6923,2.09075-3.86104,5.08645-7.21506,6.08404-11.71207,2.82273-19.50648-20.87963-11.86243-30.66132-6.21052-30.00188,12.74807-32.00078,51.84156-64.39429,46.43253-16.97915-4.41787-29.55195-24.37214-46.01331-6.31067,1.395.70489,2.38806-.06523,3.32232-.33651,24.91002-7.82509,21.58985,15.13291,41.02904,17.65615,23.48817,1.75845,29.29707-15.95066,40.0479-32.13561,8.54964-10.15832,25.5218-22.41431,39.0422-22.43894,7.54323.54154,10.0028,5.35364,5.91949,11.9586-17.10158-13.17178-42.47862,10.61938-43.11875,29.08243-1.20845,11.10792,9.41287,16.00393,19.1314,12.83928,12.10491-3.56437,20.30584-12.92111,25.72122-23.95117,8.77846,18.02119,30.15061-8.10539,38.13074-15.43168-1.65711,4.46121-3.7852,8.58559-6.0177,12.65273-3.60286,4.91464-8.61813,21.18584-15.7622,19.55932-4.12184-1.07016-1.03056-5.08506-2.75163-6.02099-14.75571,9.70879,7.42509,22.95525,13.98218,10.43934,7.87947-10.81872,8.18115-32.34508,24.8556-32.97334,7.99364.22254,6.18665,9.72535,3.74413,14.70022-1.90035,4.22226-4.76539,7.97231-6.07558,12.47575-3.19445,9.64757,8.48477,11.39883,14.79103,7.45913,8.44139-3.78989,13.21067-12.44587,21.21726-16.60914-1.40112,8.76467.13709,16.99468,9.43154,18.37212,8.12378,1.25529,14.9661-.9817,19.8451-8.0087,5.49304-7.87538,9.05376-15.70686,13.7012-24.32475-.0891,11.02064,4.83356,12.97772,14.37244,9.04402-12.58638,37.5467,35.19225,25.02761,42.81656-3.47153,6.40534,8.49351,16.96711,4.84007,22.34471-2.15833,9.14294-13.49935,26.03183-6.1097,33.85362,4.5995,17.33497,18.11045,38.07993,9.1808,56.38377-.9324Zm-243.11702-45.80042c2.55705-3.74655,7.92913-4.365,6.51677,1.62036-1.48013,6.65823-6.43509,10.4942-11.74428,14.91108.73484-6.31385,2.08972-11.70853,5.22752-16.53144Zm-75.00302,62.56597c-6.75206,4.05371-13.18656.40921-14.07156-7.65153-3.33456-15.07109,25.92429-42.56593,27.86226-13.60054-.95683,8.28233-5.28206,16.1438-13.7907,21.25206Zm199.8823-20.82604c-1.20996,8.20864-5.60538,16.40972-14.84104,21.29481-5.83083,3.08413-11.23377.25976-12.69225-6.20226-1.95859-8.67827,3.84833-20.96628,12.31967-25.9958,8.04223-6.5296,16.1121.29913,15.21363,10.90325Z" style="fill: #e6e6e6; stroke-width: 0px;"/>
</svg>