<svg xmlns="http://www.w3.org/2000/svg" width="378" height="301" viewBox="0 0 378 301">
  <defs>
    <style>
      .cls-1 {
        fill: #D8DADB;
        fill-rule: evenodd;
      }
    </style>
  </defs>
  <path id="concept-deco02.svg" class="cls-1" d="M3229.55,3087.28h0a0.082,0.082,0,0,0-.07.06,0.13,0.13,0,0,0,.05.13Zm-84.52-103.85c0.03,0.32.07,0.65,0.1,0.97q-0.15-3.165-.39-6.32A32.976,32.976,0,0,0,3145.03,2983.43Zm113.28,102.47c-3.22-.2-6.4-0.49-8.81-0.72l-0.27-.03a175.9,175.9,0,0,0-18.6-1.12c-6.34.06-12.8,0.31-19.22,0.74-0.68.05-1.37,0.11-2.07,0.17-4.14.35-8.43,0.72-12.03-1.6-2.75-1.77-4.66-4.59-6.5-7.31-0.68-.99-1.32-1.94-2-2.83-2.39-3.16-4.74-6.41-7.02-9.56-1.22-1.69-2.45-3.37-3.68-5.06a59.519,59.519,0,0,0-11.59-12.36,41.989,41.989,0,0,0-3.91-2.55c-2.88-1.74-5.86-3.53-7.52-6.29-1.88-3.13-1.64-7.31-1.44-11,0.06-1.12.12-2.17,0.12-3.17,0.01-3.64.1-7.34,0.19-10.92,0.05-2.23.11-4.47,0.14-6.71,0.03-1.56.05-3.11,0.06-4.66,0.1-8.89.2-18.09,1.93-27.07,1.24-6.45,2.1-18.5-6.09-26.76a6,6,0,0,0-4.58-2.09,5.6,5.6,0,0,0-4.01,2.54c-2.42,3.25-2.66,7.43-2.89,11.48l-0.06,1.04a247.232,247.232,0,0,0,.47,32.93c0.4,5.45.87,11.35,1.45,18.03,0.24,2.83.5,5.6,0.97,8.33,0.08,0.47.18,0.95,0.28,1.43a12.754,12.754,0,0,1,.34,5.32,0.2,0.2,0,0,1-.14.17,0.222,0.222,0,0,1-.21-0.01,25.273,25.273,0,0,1-4.9-4c-0.73-.72-1.49-1.45-2.27-2.12-1.75-1.49-3.67-2.83-5.52-4.12-0.48-.34-0.96-0.67-1.43-1.01-4.69-3.31-5.51-8.15-6.37-13.27-0.1-.6-0.2-1.21-0.31-1.82-0.34-1.89-.67-3.79-1.01-5.68-1.67-9.52-3.41-19.35-5.84-28.84-0.29-1.13-.57-2.35-0.85-3.65-1.52-6.8-3.41-15.27-10.09-18.17a2.667,2.667,0,0,0-2.84.05c-3.11,2.38-1.44,13.82-.73,18.71,0.13,0.87.23,1.55,0.27,1.96,0.54,5.47,1.1,11.12,1.91,16.65,0.09,0.61.19,1.22,0.28,1.83a70.025,70.025,0,0,1,1.16,13.75,0.24,0.24,0,0,1-.11.19,0.223,0.223,0,0,1-.21.02,69.871,69.871,0,0,1-6.9-3.12c-4.32-2.13-8.39-4.14-13.31-4.58-2.87-.26-8.76-0.06-10.5,2.53-0.73,1.09-.65,2.52.25,4.25,1.85,3.58,5.65,6.49,9.01,9.06,0.62,0.47,1.23.93,1.8,1.39a167.667,167.667,0,0,0,16.78,11.14c1.37,0.83,2.73,1.65,4.08,2.49,3.76,2.31,6.67,4.7,8.66,8.81,0.93,1.91,1.77,3.9,2.59,5.82,0.68,1.6,1.38,3.25,2.12,4.85,3.24,6.95,7.08,13.72,10.74,20,0.28,0.48.7,1.09,1.19,1.8,1.77,2.59,3.98,5.81,2.99,7.52-0.46.82-1.53,1.16-3.3,1.04-4.87-.34-10.1-2.32-14.31-3.92a140.785,140.785,0,0,1-19.81-9.76c-2.02-1.17-4.11-2.32-6.13-3.44-4.22-2.32-8.58-4.73-12.61-7.4-5.96-3.95-10.63-10.04-14.91-15.94-4.43-6.1-6.45-12.48-8.12-20.2-1.5-6.91-3.34-13.88-5.12-20.62l-0.53-2c-1.9-7.21-4.04-14.84-7.5-21.86-0.38-.77-0.75-1.56-1.12-2.35a37.69,37.69,0,0,0-4.97-8.55c-1.26-1.48-3.44-2.74-4.91-2.27-0.86.27-1.37,1.1-1.51,2.48-0.33,3.24,1.22,6.83,2.6,10q0.24,0.57.48,1.11a115.081,115.081,0,0,1,5.98,18.03c0.67,2.79,1.29,5.64,1.9,8.4,1.04,4.76,2.11,9.67,3.48,14.43,1.95,6.76,5.07,13.49,10.12,21.81a0.242,0.242,0,0,1-.02.27,0.233,0.233,0,0,1-.25.09c-2.76-.66-4.98-2.61-7.14-4.49-0.73-.64-1.42-1.25-2.13-1.8-3.25-2.55-5.47-5.04-6.43-9.57-0.13-.6-0.25-1.19-0.37-1.78a32.463,32.463,0,0,0-2.77-9c-0.46-.87-0.95-1.73-1.44-2.56a28.356,28.356,0,0,1-3.09-6.58c-0.07-.24-0.13-0.51-0.21-0.81-0.42-1.76-.99-4.21-2.76-4.1-2.17.1-3.79,4.07-4.2,5.87a7.783,7.783,0,0,0-.1,1.65,5.4,5.4,0,0,1-.45,2.72,2.052,2.052,0,0,1-1.91,1.09c-0.23.03-.48,0.05-0.78,0.11-3.08.63-3.82,2.7-4.05,6.06a0.219,0.219,0,0,1-.13.2,0.235,0.235,0,0,1-.23,0,38.343,38.343,0,0,1-8.27-7.1c-1.03-1.07-2.1-2.18-3.2-3.21-0.62-.59-1.3-1.18-1.95-1.75-2.95-2.6-6-5.28-6.84-9.27-0.62-2.94.15-5.82,0.89-8.6,0.33-1.26.68-2.56,0.89-3.85a23.041,23.041,0,0,0-1.67-12.78,17.278,17.278,0,0,0-4.57-5.62c-0.29-.26-0.6-0.6-0.93-0.96-0.88-.96-1.96-2.14-3.02-2.27a2.544,2.544,0,0,0-2.1.99,3.221,3.221,0,0,1-1.85,1.08c-1.42.14-2.56-1.11-3.55-2.2a11.293,11.293,0,0,0-1.14-1.15c-1.2-.94-2.23-1.21-2.98-0.78-0.96.55-1.42,2.25-1.14,4.23a25.329,25.329,0,0,0,2.26,6.68c0.39,0.88.8,1.79,1.15,2.69a0.248,0.248,0,0,1-.07.28,0.274,0.274,0,0,1-.29.02,6.964,6.964,0,0,1-3.43-4.24,0.26,0.26,0,0,1,.08-0.25,0.268,0.268,0,0,1,.26-0.04l1.09,0.49a9.808,9.808,0,0,0-1.92-2.05l-0.1-.09c-0.28,1.25-.56,2.49-0.82,3.74a0.258,0.258,0,0,1-.36.17,24.017,24.017,0,0,1-6.19-5.61c-0.3-.35-0.6-0.7-0.91-1.04-1-1.13-2.08-2.23-3.12-3.3-1.53-1.56-3.1-3.17-4.49-4.9-1.52-1.9-1.73-3.13-.91-5.24,1.04-2.7,1.67-4.67.91-7.39a22.047,22.047,0,0,0-1.34-3.31,18.736,18.736,0,0,1-1.53-3.98,19.176,19.176,0,0,1-.3-2.6,8.463,8.463,0,0,0-1.19-4.6c-1.29-1.85-3.86-3.23-5.94-2.33a3.827,3.827,0,0,0-1.62,1.2c-0.66.75-.99,0.68-2.55-0.55-1.48-1.15-1.86-.72-2.55.05a4.1,4.1,0,0,1-1.95,1.39c-2.07.61-3.55-1.45-4.54-2.8l-0.1-.15c-0.78-1.06-1.53-2.15-2.27-3.21-1.07-1.56-2.19-3.18-3.38-4.7-0.21-.27-0.43-0.55-0.66-0.83-1.35-1.66-2.88-3.54-2.97-5.68-0.08-1.95,1.48-3.3,2.99-4.61,1.55-1.35,3.02-2.62,2.44-4.38-0.39-1.2-1.63-1.66-2.82-2.1a8.714,8.714,0,0,1-1.75-.79c-1.79-1.16-1.97-3.04-2.16-4.86-0.04-.41-0.08-0.83-0.14-1.25-0.51-3.47-1.58-5.7-3.18-6.62-1.15-.66-2.07-0.31-3.13.09a6.184,6.184,0,0,1-2.22.53h-0.02c-3.76,0-6.27-4.79-6.58-8.1a0.262,0.262,0,0,1,.09-0.22,0.257,0.257,0,0,1,.24-0.03c1.86,0.7,3.08,2.21,4.27,3.66a19.26,19.26,0,0,0,1.9,2.13c-0.09-2.02-1.67-3.84-3.07-5.45-0.28-.33-0.56-0.65-0.81-0.95-0.14-.17-0.27-0.33-0.39-0.5a2.993,2.993,0,0,0-1.94-1.46,2.773,2.773,0,0,0-1.18.16,2.559,2.559,0,0,1-1.82.05c-1.48-.57-2.3-2.04-3.1-3.46-0.98-1.75-1.9-3.39-3.9-3.49a2.749,2.749,0,0,0-2.47.96c-1.62,2.03-.52,6.7.02,8.62,1.4,4.9,4.09,9.24,6.69,13.43,0.84,1.35,1.71,2.74,2.52,4.14a0.255,0.255,0,0,1,0,.24,0.277,0.277,0,0,1-.2.13,22.652,22.652,0,0,1-5.57-.81c-2.69-.62-5.45-1.26-8.07-0.36a2.726,2.726,0,0,0-1.88,1.77,3.354,3.354,0,0,0,.82,2.99c2.21,2.76,7,2.99,10.5,3.16,0.47,0.03.92,0.05,1.35,0.08,0.46,0.02,1.05,0,1.66-.03,1.54-.06,3.29-0.14,4.37.52a3.177,3.177,0,0,1,1.41,2.67,5.236,5.236,0,0,0,.47,1.75c1.17,2.2,3.81,2.49,6.37,2.77a14,14,0,0,1,4.23.89c3.13,1.43,5.37,4.68,7.34,7.54,0.52,0.76,1.01,1.47,1.5,2.13,1,1.34,2.13,2.66,3.21,3.93,2.36,2.76,4.79,5.6,6.21,9.01a0.244,0.244,0,0,1-.07.28,0.24,0.24,0,0,1-.29.02c-0.49-.3-1-0.65-1.54-1.02-3.01-2.04-6.43-4.36-9.52-1.92a5.391,5.391,0,0,0-1.59,5.97c0.07,0.24.14,0.45,0.21,0.65,0.62,1.93.91,2.81-1.58,4.33a24.333,24.333,0,0,1-2.5,1.26c-1.99.9-4.05,1.83-5.07,3.82a1.949,1.949,0,0,0-.23,1.8c0.52,0.9,2.49.99,3.93,1.06l0.14,0.01c3.04,0.15,6.13-.01,9.13-0.16a92.027,92.027,0,0,1,9.41-.14,0.234,0.234,0,0,1,.22.17,0.243,0.243,0,0,1-.09.26,5.226,5.226,0,0,1-.47.35c-1.17.87-3.14,2.33-2.94,3.67,0.23,1.5,2.4,2.24,6.44,2.18,1.37-.02,2.7-0.15,3.98-0.28,4.1-.41,7.97-0.8,11.49,3.04q0.69,0.75,1.35,1.5a42.842,42.842,0,0,0,4.43,4.51c0.24,0.2.51,0.42,0.8,0.65,1.57,1.24,3.7,2.95,4,4.88a5.619,5.619,0,0,1-.31,2.5,4.007,4.007,0,0,0,.02,3.17,12.73,12.73,0,0,0,.65,1.21c0.81,1.39,1.58,2.71-.09,4.26a6.023,6.023,0,0,1-1.11.77,2.975,2.975,0,0,0-1.43,1.38,3.837,3.837,0,0,0-.23,1.54,7.268,7.268,0,0,1-.09,1.13c-0.46,2.27-2.03,3.29-3.69,4.36-0.38.24-.76,0.49-1.15,0.76l-0.18.13c-1.24.87-3.11,2.18-2.56,3.8,0.62,1.81,3.24,1.43,4.8,1.21,0.48-.07.91-0.13,1.34-0.2a18.4,18.4,0,0,1,7.58-.07c0.8,0.2,1.58.42,2.37,0.64a39.451,39.451,0,0,0,5.71,1.28,36.055,36.055,0,0,0,8.44,0c2.25-.25,4.58-0.51,6.74.79a17.766,17.766,0,0,1,4.19,4.07c0.5,0.6.96,1.16,1.45,1.7,1.72,1.87,3.54,3.72,5.29,5.5l2.13,2.17a64.9,64.9,0,0,1,5.76,6.38c0.6,0.79,1.16,1.61,1.72,2.41a34.759,34.759,0,0,0,3.71,4.76,0.256,0.256,0,0,1,.06.25,0.24,0.24,0,0,1-.19.16c-2.34.39-3.87,1.12-4.33,2.06a1.978,1.978,0,0,0,.21,1.88c1.35,2.43,4.57,2.87,7.42,3.27,0.75,0.1,1.46.2,2.1,0.33a0.249,0.249,0,0,1,.19.18,0.26,0.26,0,0,1-.08.25,10.8,10.8,0,0,0-3.43,3.93,42.11,42.11,0,0,0,10.46-1.08,45.192,45.192,0,0,1,10.08-1.1c5.04,0.21,9.7,3.8,13.82,6.97,1.26,0.96,2.44,1.87,3.61,2.67,2.22,1.53,4.4,3.24,6.5,4.88a72.638,72.638,0,0,0,11.94,8.13,45.014,45.014,0,0,0,5.06,2.05,45.326,45.326,0,0,1,5.3,2.16c2.31,1.19,4.53,2.6,6.68,3.97,1.09,0.69,2.2,1.4,3.32,2.07a0.239,0.239,0,0,1,.11.23,0.265,0.265,0,0,1-.16.21c-2,.71-4.25.27-6.43-0.14-0.83-.16-1.61-0.32-2.36-0.4-3.1-.34-6.15-0.55-9.53-0.76-5.67-.36-10.39-1-14.98-5.52-3.9-3.84-7.53-7.15-12.49-8.91-2.73-.97-6.3-1.55-8.13-0.3a3.1,3.1,0,0,0-1.27,2.66,7.758,7.758,0,0,0,1.13,3.27c0.73,1.42,1.47,2.89,1.05,4.13a2.955,2.955,0,0,1-1.68,1.63,11.676,11.676,0,0,1-3.96.78,20.234,20.234,0,0,0-2.19.26,50.018,50.018,0,0,0-7.58,2.07c-1.82.67-2.79,1.52-2.86,2.51-0.11,1.39,1.58,3.21,4.53,4.85a24.055,24.055,0,0,0,14.26,3.14,38.706,38.706,0,0,0,3.96-.72c2.98-.66,6.08-1.34,8.99-0.49,2.03,0.59,3.37,2.11,4.66,3.57,0.31,0.35.63,0.71,0.95,1.05,0.5,0.53,1.03,1.05,1.55,1.55a20.806,20.806,0,0,1,4.01,4.83,0.244,0.244,0,0,1,.01.22,0.274,0.274,0,0,1-.17.13c-2.68.63-5.45,1.01-8.12,1.37-2.63.36-5.36,0.73-7.99,1.34a60.949,60.949,0,0,0-5.87,1.78,47.364,47.364,0,0,1-7.88,2.17,15.429,15.429,0,0,1-1.74.11c-1.75.06-4.15,0.13-4.86,1.23a2.105,2.105,0,0,0,.07,1.98c0.93,2.24,4.34,3.74,6.29,4.44,7,2.5,14.99,1.15,22.59-.67,1.21-.29,2.41-0.63,3.69-0.99,4.97-1.39,10.11-2.84,15.08-1.25,3.05,0.97,5.68,3.11,8.21,5.18,0.91,0.75,1.77,1.45,2.65,2.1a113.7,113.7,0,0,0,10.08,6.8,90.218,90.218,0,0,0,24.64,9.89c7.62,1.85,16.44,3.66,24.63,1.77,8.45-1.95,16.03-7.03,22.96-12.22,1.69-1.27,3.39-2.62,5.03-3.94,5.42-4.32,11.02-8.8,17.7-11.19a44.652,44.652,0,0,1,13.98-2.14l2.8-.09c1.87-.07,3.78-0.14,5.69-0.14,1.7,0,3.41.06,5.11,0.22a0.233,0.233,0,0,1,.21.19,0.242,0.242,0,0,1-.12.26c-2.04,1.06-4.19,1.97-6.27,2.84a51.509,51.509,0,0,0-9.74,4.93,65.952,65.952,0,0,0-8.77,7.8c-1.47,1.47-2.99,2.99-4.55,4.41a39.1,39.1,0,0,1-15.74,8.83c-1.44.41-2.89,0.8-4.3,1.18a77.484,77.484,0,0,0-12.11,3.93,311.371,311.371,0,0,0-28.18,14.97c-6,3.48-14.03,9.1-14.52,17.78-0.13,2.27.44,3.81,1.68,4.58,2.59,1.61,8.1.05,16.38-4.62a124.813,124.813,0,0,0,12.54-8.5,111.21,111.21,0,0,1,14.46-9.54c3.42-1.77,7.02-3.31,10.51-4.81,5.77-2.47,11.74-5.03,17-8.68,5.04-3.48,9.43-7.87,13.67-12.12,2.96-2.96,6.01-6.02,9.27-8.76a135.792,135.792,0,0,1,13.33-9.51c3.92-2.56,7.82-4.91,12.52-5.5,4.27-.54,8.56.04,12.72,0.6,4.23,0.56,8.59,1.14,12.9.55-1.61-1.34-3.82-1.45-5.97-1.56Zm-335.06-193.66c0.52-1.59.82-2.22,2.93-1.55a0.234,0.234,0,0,1,.16.16,0.244,0.244,0,0,1-.04.22c-0.18.23-.36,0.48-0.54,0.74-0.62.92-1.33,1.94-2.42,1.94a1.526,1.526,0,0,1-.3-0.03,0.237,0.237,0,0,1-.19-0.32C2923.01,2892.96,2923.14,2892.58,2923.25,2892.24Zm-14.21-15.05c1.07-.27,2.5.81,3.28,2a13.847,13.847,0,0,1,1.38,3.28,16.8,16.8,0,0,0,1.06,2.7c-0.04-.81-0.13-1.63-0.22-2.42a16.92,16.92,0,0,1,.09-6.14,0.248,0.248,0,0,1,.14-0.16,0.256,0.256,0,0,1,.21,0,11.887,11.887,0,0,1,4.22,3.23,0.488,0.488,0,0,1,.03.07c0.13,0.33.3,0.7,0.48,1.08,0.54,1.13,1.15,2.41.76,3.62a2.91,2.91,0,0,1-1.34,1.51,5.114,5.114,0,0,0-.75.57,7.9,7.9,0,0,0-1.23,1.68,10.925,10.925,0,0,1-.75,1.16,0.274,0.274,0,0,1-.18.1h-0.02a0.284,0.284,0,0,1-.17-0.07c-0.37-.37-0.71-0.74-1.04-1.11a12.381,12.381,0,0,0-2.34-2.16c-0.27-.19-0.56-0.35-0.84-0.51a7.12,7.12,0,0,1-1.64-1.16c-1.08-1.08-2.53-3.43-2.36-5.27C2907.95,2877.75,2908.55,2877.31,2909.04,2877.19Zm-13.32-7.03c-1.21-3.29-2.4-7.57-1.2-9.23a1.746,1.746,0,0,1,1.58-.7c1.41,0.04,6.87,6.09,7.28,7.18a0.684,0.684,0,0,1,.04.26c3.1,5.75,4.09,9.3,2.94,10.54a1.606,1.606,0,0,1-1.25.48,6.3,6.3,0,0,1-2.42-.66C2898.65,2876.24,2896.98,2873.59,2895.72,2870.16Zm6.24,12.01c-0.34-.36-0.6-0.64-0.74-0.78a0.275,0.275,0,0,1-.08-0.15l-0.35-3.3a0.248,0.248,0,0,1,.34-0.25c5.78,2.51,8.72,5.22,9.01,8.3,0.1,1.08-.1,1.72-0.61,1.95a1.07,1.07,0,0,1-.41.08C2907.6,2888.02,2904.8,2885.24,2901.96,2882.17Zm10.83,15.32h-0.03a0.858,0.858,0,0,1-.28-0.08c-0.25-.07-0.53-0.13-0.81-0.19-1.36-.31-3.06-0.69-2.76-2.29a0.249,0.249,0,0,1,.15-0.18,0.217,0.217,0,0,1,.22.02c0.22,0.14.53,0.36,0.88,0.6a21.3,21.3,0,0,0,2.45,1.58c0.09,0.02.17,0.05,0.25,0.07a0.236,0.236,0,0,1,.16.28A0.226,0.226,0,0,1,2912.79,2897.49Zm0.99-2.58a0.269,0.269,0,0,1-.18.08,0.2,0.2,0,0,1-.11-0.03,18.376,18.376,0,0,1-2.45-1.53,12.058,12.058,0,0,0-3.72-1.99,17.824,17.824,0,0,0-4.45-.4c-0.61,0-1.23-.01-1.83-0.03-4.33-.21-8.8-0.66-11.71-3.63a0.237,0.237,0,0,1-.07-0.2,0.245,0.245,0,0,1,.11-0.17c3.86-2.49,8.39-1.4,12.33-.18,3.76,1.16,8.44,2.61,11.08,6.19a0.01,0.01,0,0,1,.01.01l1.01,1.58A0.257,0.257,0,0,1,2913.78,2894.91Zm6.8,4.48a0.269,0.269,0,0,1-.18.08c-0.03,0-.05-0.01-0.07-0.01-1.77-.53-2.84-2.13-3.79-3.55-0.25-.36-0.49-0.71-0.73-1.05-0.39-.52-0.83-1.05-1.25-1.56-1.42-1.71-2.89-3.47-3.12-5.81a0.244,0.244,0,0,1,.1-0.22,0.278,0.278,0,0,1,.25-0.02c0.39,0.19,4.19,2.67,4.27,3.94a0.607,0.607,0,0,1-.11.4c0.46,0.7.95,1.4,1.42,2.08a30.508,30.508,0,0,1,3.25,5.46A0.245,0.245,0,0,1,2920.58,2899.39Zm0.3-2.77a0.244,0.244,0,0,1-.22.19,0.031,0.031,0,0,1-.02.01,0.253,0.253,0,0,1-.23-0.15c-0.09-.23-0.28-0.59-0.49-1.01-1.17-2.3-3.37-6.59-.78-7.97a1.385,1.385,0,0,1,1.56-.04C2922.35,2888.88,2921.13,2895.34,2920.88,2896.62Zm3.45,9.25a0.243,0.243,0,0,1-.2.11,0.2,0.2,0,0,1-.13-0.04l-0.18-.11h0a0.207,0.207,0,0,1-.11-0.22,0.219,0.219,0,0,1,.13-0.2,0.185,0.185,0,0,1,.24.02l0.01-.01,0.11,0.08a0.209,0.209,0,0,1,.06.04h0A0.24,0.24,0,0,1,2924.33,2905.87Zm15.32,10.55a0.24,0.24,0,0,1,.29.01l3.16,2.39a0.234,0.234,0,0,1,.07.07,11.064,11.064,0,0,1,.99,4.38c0.03,0.29.05,0.58,0.08,0.87a0.229,0.229,0,0,1-.14.24,0.169,0.169,0,0,1-.1.03,0.269,0.269,0,0,1-.18-0.08,19.615,19.615,0,0,1-4.26-7.64A0.237,0.237,0,0,1,2939.65,2916.42Zm-9.81,21.5c-2.24.12-4.53,0.25-6.82,0.25a42.539,42.539,0,0,1-6.66-.47,0.225,0.225,0,0,1-.19-0.16,0.239,0.239,0,0,1,.05-0.24l3.07-3.48a0.209,0.209,0,0,1,.13-0.07,33.991,33.991,0,0,1,12.19-.34c0.61,0.11,1.28.28,1.98,0.46,2.33,0.58,4.95,1.24,6.73-.06a14.428,14.428,0,0,0-5.84-1.98,14.575,14.575,0,0,1-6.08-2.1c-1.41-1.03-3.38-3.76-3.26-6.05a2.792,2.792,0,0,1,1.46-2.37c2.8-1.6,6.15,1.46,8.36,3.49,0.42,0.38.81,0.74,1.14,1.02,0.53,0.43,1.13.84,1.76,1.27a12.044,12.044,0,0,1,3.44,3.04,10.444,10.444,0,0,1,1.26,4.81,17.606,17.606,0,0,0,.43,2.82,0.254,0.254,0,0,1-.05.22,0.265,0.265,0,0,1-.22.08A66.025,66.025,0,0,0,2929.84,2937.92Zm19.88,4.91c-1.49.93-3.28,0.9-5,.87-0.57-.02-1.11-0.03-1.64,0-0.41.02-.84,0.05-1.26,0.08-0.64.06-1.28,0.11-1.92,0.11a6.285,6.285,0,0,1-3.18-.72,0.242,0.242,0,0,1-.13-0.18,0.227,0.227,0,0,1,.08-0.2l1.28-1.23a0.213,0.213,0,0,1,.15-0.07c3.59-.28,7.74-0.46,11.58.91a0.255,0.255,0,0,1,.16.2A0.247,0.247,0,0,1,2949.72,2942.83Zm-6.25-10.11a0.243,0.243,0,0,1,.14-0.24,0.229,0.229,0,0,1,.27.04,5.173,5.173,0,0,1,.54.65c0.36,0.45,1.27,1.62,1.65,1.62a0.075,0.075,0,0,0,.05-0.01,0.233,0.233,0,0,1,.2.02,0.263,0.263,0,0,1,.12.15l0.84,3.1a0.242,0.242,0,0,1-.11.27,0.2,0.2,0,0,1-.13.04,0.22,0.22,0,0,1-.15-0.06C2945.26,2936.95,2943.71,2935.34,2943.47,2932.72Zm8.14,7.05a0.21,0.21,0,0,1-.15-0.05,0.258,0.258,0,0,1-.08-0.27,16.512,16.512,0,0,0-1.02-2.6,18.473,18.473,0,0,1-.84-2.06,10.707,10.707,0,0,1-.06-4.05,4.443,4.443,0,0,1-1.64,2.51,2.4,2.4,0,0,1-2.5-.25c-3.85-2.24-8.78-11.38-8.73-13.65a0.242,0.242,0,0,1,.1-0.19,0.222,0.222,0,0,1,.22-0.03c1.83,0.67,2.95,2.23,4.03,3.75,0.2,0.29.41,0.58,0.62,0.86a40.316,40.316,0,0,0,5.13,5.85,31.184,31.184,0,0,0-1.5-7.31c-0.09-.29-0.21-0.61-0.34-0.94-0.45-1.22-.97-2.61-0.56-3.8a2,2,0,0,1,1.35-1.47c1.55-.39,3.61,1.55,4.99,2.82,0.27,0.26.51,0.48,0.69,0.63a0.246,0.246,0,0,1,.09.22c-0.08.54-.15,1.07-0.22,1.61-0.22,1.67-.45,3.41-0.79,5.11-0.04.23-.09,0.51-0.15,0.81a25.634,25.634,0,0,1-.6,2.85,2.531,2.531,0,0,1,.62-0.94,1.744,1.744,0,0,1,1.74-.52c1.55,0.49,2.23,3.4,2.31,3.73a7.518,7.518,0,0,1-2.54,7.32A0.272,0.272,0,0,1,2951.61,2939.77Zm32.29,11.87a1.267,1.267,0,0,1,1.53-.14c1.88,1.22,1.83,8.38,1.64,9.32a0.252,0.252,0,0,1-.17.19c-0.02,0-.04.01-0.07,0.01a0.269,0.269,0,0,1-.18-0.08l-1.66-1.84a0.191,0.191,0,0,1-.05-0.1c-0.07-.23-0.21-0.6-0.37-1.04C2983.57,2955.23,2982.69,2952.49,2983.9,2951.64Zm-10.4-2.17a0.223,0.223,0,0,1,.1-0.18,0.241,0.241,0,0,1,.2-0.03,13.414,13.414,0,0,1,8.91,7.35,29.8,29.8,0,0,0,2,3.16c1.42,2.06,2.89,4.19,3.18,6.67,0.33,2.81.07,4.58-.77,5.26a1.4,1.4,0,0,1-.91.32,2.385,2.385,0,0,1-.72-0.13,5.374,5.374,0,0,1-2.22-2.32,9.54,9.54,0,0,0-.68-0.98c-1.04-1.24-2.2-2.42-3.33-3.55l-1.47-1.5a0.161,0.161,0,0,1-.04-0.07c-0.36-.8-0.74-1.6-1.12-2.41C2974.9,2957.43,2973.11,2953.66,2973.5,2949.47Zm-0.18,12.96a0.26,0.26,0,0,1,.24-0.07c2.13,0.5,3.75,1.97,5.32,3.38,0.58,0.53,1.18,1.07,1.79,1.55a0.253,0.253,0,0,1,.1.18l0.07,1.37a0.234,0.234,0,0,1-.08.18,0.206,0.206,0,0,1-.17.07h-0.02c-2.99-.28-6.52-3.77-7.3-6.42A0.253,0.253,0,0,1,2973.32,2962.43Zm-6.09.98c1.25-1.11,3,.12,4.05.85,0.11,0.08.22,0.16,0.32,0.22,1.01,0.69,1.97,1.46,2.9,2.21,0.85,0.67,1.72,1.37,2.61,2,0.49,0.33,1,.66,1.5.97a13.722,13.722,0,0,1,3.53,2.76c1.48,1.77,2.05,3.61,1.39,4.46a1.4,1.4,0,0,1-1.17.48,6.013,6.013,0,0,1-2.46-.72,46.575,46.575,0,0,1-12.08-8.5,0.423,0.423,0,0,1-.05-0.07c-0.07-.16-0.16-0.34-0.26-0.53C2966.88,2966.34,2965.94,2964.53,2967.23,2963.41Zm-1.84,9.76a0.265,0.265,0,0,1,.19-0.11c3.68-.21,6.5,1.01,9.5,2.3,0.75,0.32,1.51.65,2.31,0.97,0.13,0.05.35,0.13,0.62,0.23,2.53,0.89,4.94,1.87,5.46,2.97a0.934,0.934,0,0,1,.05.73,0.735,0.735,0,0,1-.41.42,1.686,1.686,0,0,1-.72.13,21.3,21.3,0,0,1-5.94-1.7c-0.4-.16-0.71-0.28-0.87-0.33-0.75-.23-1.56-0.43-2.42-0.64-3.07-.73-6.55-1.56-7.79-4.75A0.219,0.219,0,0,1,2965.39,2973.17Zm3.65,9.82a34.682,34.682,0,0,1-8.67,1.48,16.714,16.714,0,0,1-2.11-.13,0.266,0.266,0,0,1-.2-0.17,0.261,0.261,0,0,1,.07-0.25c2.48-2.38,5.5-4.86,9.06-5.14a9.586,9.586,0,0,1,4.23.84q0.345,0.135.72,0.27a19.024,19.024,0,0,0,2.55.64,20.63,20.63,0,0,1,2.23.54,0.243,0.243,0,0,1,.17.26,0.245,0.245,0,0,1-.23.21A39.063,39.063,0,0,0,2969.04,2982.99Zm23.7-10.11a49.943,49.943,0,0,0-.76,5.79,12.273,12.273,0,0,0,.17,2.08,7.436,7.436,0,0,1-.13,3.89c-0.9,1.95-2.88,1.97-4.63,1.99-0.23,0-.45.01-0.66,0.01l-1.58.06c-1.17.04-2.35,0.08-3.53,0.08a20.575,20.575,0,0,1-9.51-1.84,0.257,0.257,0,0,1-.14-0.25,0.245,0.245,0,0,1,.19-0.2,18.652,18.652,0,0,1,5.21-.24c2.84,0.12,5.78.25,7.85-1.52,2.36-2.01,1.13-4.73-.06-7.35a13.689,13.689,0,0,1-1.32-3.76,0.244,0.244,0,0,1,.12-0.24,0.226,0.226,0,0,1,.26.02c0.08,0.06.21,0.14,0.37,0.24,0.93,0.57,1.84,1.19,1.92,1.86a0.768,0.768,0,0,1-.09.47l1.98,1.92a65.3,65.3,0,0,0,.3-9.47,58.356,58.356,0,0,1,.47-10.63,0.219,0.219,0,0,1,.14-0.19,0.257,0.257,0,0,1,.24.03C2994.98,2959.66,2993.79,2966.68,2992.74,2972.88Zm40.85,38.38a0.672,0.672,0,0,1,.52-0.4,0.239,0.239,0,0,1,.28.18,23.22,23.22,0,0,1,.52,2.98l0.05,0.41a0.238,0.238,0,0,1-.16.26,0.188,0.188,0,0,1-.08.02,0.24,0.24,0,0,1-.2-0.12C3034.5,3014.56,3033.15,3012.22,3033.59,3011.26Zm-10.98-17.61a3.06,3.06,0,0,1,1.98-1.94,1.816,1.816,0,0,1,1.45.12c1.31,0.73,1.92,3.11,2.32,4.68,0.09,0.33.16,0.62,0.23,0.85,0.21,0.7.48,1.42,0.77,2.19a14.715,14.715,0,0,1,1.34,5.65c-0.05,1.07-.34,1.69-0.87,1.9a1.162,1.162,0,0,1-.42.08c-1.14,0-2.71-1.5-4-2.74-0.42-.39-0.77-0.73-1.02-0.92a0.435,0.435,0,0,1-.06-0.07C3023.39,3001.87,3021.48,2996.64,3022.61,2993.65Zm-5.61,7.6c1.63-.84,3.16.51,4.38,1.59,0.26,0.23.5,0.45,0.73,0.62a26.132,26.132,0,0,0,3.05,1.94c3.08,1.78,6.56,3.8,6.78,7.3a0.252,0.252,0,0,1-.09.2,0.226,0.226,0,0,1-.15.05,0.22,0.22,0,0,1-.08-0.01c-0.58-.18-1.15-0.41-1.71-0.63a11.879,11.879,0,0,0-2.88-.9,9.424,9.424,0,0,0-1.76.01,8.022,8.022,0,0,1-2.13-.04c-2.03-.4-3.45-1.84-4.81-3.23-0.56-.57-1.14-1.16-1.74-1.66a0.2,0.2,0,0,1-.08-0.12c-0.05-.16-0.11-0.34-0.16-0.53C3015.89,3004.38,3015.2,3002.18,3017,3001.25Zm4.08,20.87c-0.38-.01-0.78,0-1.19.01a8.024,8.024,0,0,1-4.4-.74c-1.23-.74-1.37-1.43-1.27-1.87,0.15-.73,1.06-1.28,2.36-1.44a11.25,11.25,0,0,1,3.51.34c2.18,0.42,4.24.83,5.71-.84-0.99-.36-2.07-0.64-3.2-0.94-3.8-1-8.1-2.14-9.26-6.46a0.239,0.239,0,0,1,.04-0.2,0.228,0.228,0,0,1,.19-0.1c3.07-.13,5.8,1.4,8.42,2.87,1.1,0.62,2.24,1.26,3.36,1.75a0.244,0.244,0,0,1,.11.09,13.885,13.885,0,0,0,1.15,1.41c1.55,1.75,3.68,4.15,2.52,5.7-0.52.7-1.64,0.91-2.9,0.91a27.174,27.174,0,0,1-3.42-.3A16.891,16.891,0,0,0,3021.08,3022.12Zm16.27,2.1c-1.48,1.49-4.2,1.77-6.74,1.77-0.83,0-1.64-.03-2.38-0.06-0.7-.03-1.36-0.05-1.91-0.04h0a0.243,0.243,0,0,1-.2-0.11,0.363,0.363,0,0,1-.06-0.48c0.14-.15.31-0.07,0.49,0.05a8.418,8.418,0,0,0,1.05-.74,6.567,6.567,0,0,1,1.71-1.07,5.057,5.057,0,0,1,1.22-.23,3.42,3.42,0,0,0,1.24-.26c0.97-.47,1.04-0.52.86-1.44-0.18-1.01-1.26-1.79-2.22-2.49a9.52,9.52,0,0,1-1.19-.95,8.358,8.358,0,0,1-2.45-5.2,0.235,0.235,0,0,1,.08-0.21,0.218,0.218,0,0,1,.23-0.05c2.22,0.61,9.91,5.24,10.91,9.02A2.447,2.447,0,0,1,3037.35,3024.22Zm24.49,9.41a0.245,0.245,0,0,1-.16.06,0.2,0.2,0,0,1-.15-0.05,64.387,64.387,0,0,1-7.81-7.3l-0.99-1.03a0.078,0.078,0,0,1-.04-0.04c-6.73-10.81-9.94-23.08-12.89-35.76a146.319,146.319,0,0,0-4.42-16.07c-0.68-1.88-1.46-3.76-2.22-5.58a72.957,72.957,0,0,1-3.57-9.98l-0.1-.38c-0.29-1.1-.7-2.62-0.09-3.48a1.462,1.462,0,0,1,1.14-.61c1.54-.17,3.21,2.2,4.03,3.33l0.12,0.18c3.13,4.3,5.01,9.51,6.68,14.11,3.07,8.5,5.05,17.48,6.96,26.17,0.5,2.26.99,4.52,1.51,6.77,0.37,1.61.71,3.22,1.06,4.84,0.79,3.67,1.6,7.47,2.66,11.11,1.03,3.53,3.13,6.31,5.35,9.24,1,1.34,2.05,2.71,2.97,4.16A0.244,0.244,0,0,1,3061.84,3033.63Zm79.97-19.1c-0.18-1.67-.35-3.34-0.53-5-0.22-1.99-.45-4-0.68-6-1.7-14.84-3.45-30.17-.92-45.1,0.06-.34.11-0.71,0.17-1.09,0.54-3.41,1.27-8.08,4.2-9.87,3.11-1.91,5.4,1.62,6.76,3.73a26.723,26.723,0,0,1,3.88,21.22c-1.57,7.04-1.57,13.92-1.56,21.2,0,1.5.01,3-.01,4.51-0.04,5.02-.22,10.12-0.4,15.06-0.17,4.56-.34,9.27-0.4,13.91-0.1,8.4.19,17.37,2.98,26.03a81.476,81.476,0,0,0,5.77,13.92,69.028,69.028,0,0,0,4.3,6.63c1.11,1.58,2.25,3.2,3.28,4.88a0.242,0.242,0,0,1-.01.27,0.261,0.261,0,0,1-.2.1,0.254,0.254,0,0,1-.07-0.02c-2.82-.84-4.86-4.07-6.36-6.42l-0.38-.59a69.316,69.316,0,0,1-5.89-11.45c-3.22-7.95-5.52-16.49-7.45-27.71-1.99-11.54-2.33-23.36-2.67-34.79-0.06-2.34-.13-4.71-0.22-7.09-0.01,2.08-.11,4.14-0.2,6.17l-0.05,1.28a149.774,149.774,0,0,0,.42,23.2,174.085,174.085,0,0,0,4.32,24.62c1.15,4.37,2.66,8.71,4.12,12.91,1.21,3.48,2.46,7.07,3.5,10.68a0.241,0.241,0,0,1-.43.2C3145.92,3053.47,3143.83,3033.67,3141.81,3014.53Zm18.65,63.1a0.214,0.214,0,0,1-.18.09,0.235,0.235,0,0,1-.08-0.02c-3.57-1.18-6.55-3.61-9.43-5.97-0.59-.48-1.18-0.96-1.77-1.43a98.146,98.146,0,0,1-11.07-10.28,0.351,0.351,0,0,1-.05-0.08c-0.5-1.41-1-2.81-1.51-4.22q-1.455-4.11-2.95-8.21c-0.28-.76-0.58-1.53-0.88-2.3a30.1,30.1,0,0,1-2.51-9.06,0.238,0.238,0,0,1,.37-0.22c6.37,3.97,14.12,9.57,17.55,17.65,0.73,1.73,1.32,3.54,1.9,5.29a46.281,46.281,0,0,0,3.02,7.62,39.256,39.256,0,0,0,3.81,5.44,40.027,40.027,0,0,1,3.81,5.43A0.227,0.227,0,0,1,3160.46,3077.63Zm-35.64-60.93c1.39-1.41,3.37.45,4.43,1.44,0.16,0.15.3,0.29,0.43,0.39,1.6,1.4,3.28,2.77,4.9,4.09,2.63,2.15,5.36,4.38,7.86,6.81a0.236,0.236,0,0,1,.06.09,30.9,30.9,0,0,1,1.23,5.72c0.11,0.72.21,1.43,0.34,2.15,0.12,0.66.25,1.32,0.38,1.98a32.17,32.17,0,0,1,.79,5.65,0.261,0.261,0,0,1-.11.21,0.326,0.326,0,0,1-.13.04,0.3,0.3,0,0,1-.1-0.02,19.322,19.322,0,0,1-5.01-3.51c-0.44-.38-0.88-0.76-1.32-1.12-0.58-.48-1.16-0.94-1.74-1.4a43.449,43.449,0,0,1-4.6-4.01c-3.78-3.97-5.24-8.83-6.79-13.97l-0.23-.8c-0.06-.18-0.15-0.4-0.24-0.64C3124.58,3018.82,3124.05,3017.48,3124.82,3016.7Zm-15.29,4.44a0.22,0.22,0,0,1-.15.06,0.292,0.292,0,0,1-.09-0.02c-5.24-2.01-9.81-5.34-14.23-8.56-1.7-1.24-3.46-2.52-5.22-3.7-1.05-.7-2.36-1.46-3.75-2.26-4.98-2.87-11.17-6.45-12.35-11.41a3.21,3.21,0,0,1,.63-3.1c2.08-2.27,7.84-1.69,10.22-1.34,3.33,0.49,6.19,1.93,9.31,3.62l1.07,0.57a45.159,45.159,0,0,1,8.98,5.8,0.259,0.259,0,0,1,.07.11c0.43,1.39.87,2.77,1.32,4.16a119.955,119.955,0,0,1,4.27,15.84A0.22,0.22,0,0,1,3109.53,3021.14Zm4-8.08c0.19,0.87.39,1.74,0.56,2.6,0.16,0.76.3,1.52,0.45,2.28a65.675,65.675,0,0,0,3.14,12.14c1.51,3.79,3.43,7.5,5.29,11.08,0.48,0.94.97,1.88,1.44,2.81,0.54,1.05,1.13,2.12,1.7,3.16,1.84,3.34,3.74,6.79,4.42,10.56a0.229,0.229,0,0,1-.13.26,0.242,0.242,0,0,1-.29-0.05c-2.27-2.51-3.62-5.67-4.92-8.72-0.64-1.49-1.29-3.03-2.04-4.46-1-1.9-2.11-3.78-3.18-5.6a90.056,90.056,0,0,1-4.61-8.51,130.95,130.95,0,0,1-8.77-28.62c-1.4-6.97-2.43-14.13-3.42-21.05-0.29-1.99-.58-3.99-0.87-5.98-0.29-1.93-.62-3.9-0.94-5.8-1.07-6.37-2.18-12.94-1.85-19.45,0.12-2.33.78-3.8,1.9-4.26,1.05-.43,2.38.08,3.95,1.52,3.14,2.89,4.34,6.91,5.49,11.49,2.18,8.72,3.76,17.73,5.29,26.44l0.18,1c0.51,2.89.98,5.84,1.44,8.68,0.93,5.75,1.9,11.7,3.17,17.49,1.63,7.45,3.95,14.84,6.2,22,0.57,1.84,1.15,3.68,1.72,5.52,0.48,1.57.94,3.19,1.39,4.76,1.95,6.85,3.98,13.93,8.38,19.63,3.25,4.2,7.68,7.19,11.97,10.09a80.6,80.6,0,0,1,7.64,5.58,0.233,0.233,0,0,1,.07.27,0.241,0.241,0,0,1-.23.16,29.82,29.82,0,0,1-14.42-3.45,15.15,15.15,0,0,1-5.21-4.35,9.03,9.03,0,0,1-.46-0.78c-0.53-.98-1.25-2.32-2.14-2.03a0.215,0.215,0,0,1-.19-0.02,0.236,0.236,0,0,1-.12-0.14,170.347,170.347,0,0,0-13.78-33.88,52.424,52.424,0,0,1-5.33-16.73c-0.15-.88-0.28-1.86-0.42-2.9-0.55-4.13-1.24-9.22-3.43-12.27C3112.07,3006.7,3112.81,3009.93,3113.53,3013.06Zm-4.65,53.8a45.267,45.267,0,0,1,8.85,3.25c1.9,0.85,3.86,1.73,5.86,2.4,2.06,0.7,4.2,1.29,6.26,1.86a72.5,72.5,0,0,1,9.96,3.28,0.236,0.236,0,0,1,.15.21,0.24,0.24,0,0,1-.12.22,19.7,19.7,0,0,1-6.83,1.92c-0.64.1-1.28,0.2-1.92,0.32-1.68.31-3.38,0.68-5.02,1.05-1.57.35-3.19,0.71-4.8,1.01a67.033,67.033,0,0,1-12.44,1.22c-1.49,0-2.96-.06-4.42-0.17-1.08-.08-2.18-0.14-3.34-0.19-3.99-.2-8.12-0.4-11.75-1.94a21.1,21.1,0,0,1-6.77-5.22l-1.04-1.07c-1.98-2.01-4.03-4.1-5.1-6.7a0.219,0.219,0,0,1,.02-0.22,0.211,0.211,0,0,1,.18-0.11c2.96-.21,5.99-0.58,8.93-0.93C3093.23,3066.13,3101.18,3065.17,3108.88,3066.86Zm-63.67-21.77c1.88-.62,4.22.33,5.92,1.02l0.08,0.03c4.99,2.03,8.66,5.91,11.88,9.79a0.228,0.228,0,0,1,.03.27,0.233,0.233,0,0,1-.21.13h-0.03l-2.33-.21c-6.43-.54-13.07-1.11-17.17-6.39a0.19,0.19,0,0,1-.05-0.13l-0.03-.38C3043.15,3047.46,3043.01,3045.8,3045.21,3045.09Zm5.95,21.47a92.331,92.331,0,0,1-9.73.72c-5.77,0-11.17-1.19-15.31-5.76a0.272,0.272,0,0,1-.07-0.2,0.3,0.3,0,0,1,.12-0.17c5.59-3.4,12.51-4.08,19.11-4.48a48.61,48.61,0,0,1,18.21,1.9,22.449,22.449,0,0,0,7.87.96H3072a41.637,41.637,0,0,1,6.02.62c0.92,0.14,1.87.29,2.81,0.4,1.8,0.22,3.64.37,5.42,0.52,1.61,0.13,3.28.27,4.92,0.45a25.121,25.121,0,0,1,4.45,1.07,24.074,24.074,0,0,0,4.28,1.04,0.242,0.242,0,0,1-.01.48c-2.18.23-4.4,0.58-6.55,0.92a68.263,68.263,0,0,1-13.56,1.19,21.965,21.965,0,0,1-3.05-.43,11.541,11.541,0,0,0-4.97-.22,28.6,28.6,0,0,1-9.17.39A63.307,63.307,0,0,0,3051.16,3066.56Zm13.75,6.85a32.942,32.942,0,0,0-2.26-2.89c-0.73-.81-0.91-1.49-0.56-2.03,1.18-1.79,8.53-.86,9.83-0.43,2.38,0.8,3.83,2.49,5.38,4.28,0.18,0.21.36,0.43,0.55,0.64,0.49,0.56,1.01,1.11,1.52,1.65a19.694,19.694,0,0,1,4.26,5.81,0.259,0.259,0,0,1-.02.21,0.238,0.238,0,0,1-.17.12,8.95,8.95,0,0,1-1.35.1,20.836,20.836,0,0,1-3.27-.35c-0.46-.07-0.92-0.15-1.39-0.21-0.61-.07-1.25-0.12-1.87-0.16a13.888,13.888,0,0,1-4.05-.65C3068.6,3078.43,3066.73,3075.88,3064.91,3073.41Zm9.6,14.24c-2.39.51-4.81,1.08-7.15,1.64a158.916,158.916,0,0,1-15.86,3.18,39.643,39.643,0,0,1-5.15.36c-5.43,0-9.68-1.36-12.89-4.11a0.233,0.233,0,0,1-.08-0.23,0.225,0.225,0,0,1,.17-0.18l0.72-.23c12.22-3.81,24.85-7.74,38.04-6.89,8.03,0.52,16.15,1.51,24,2.46,6.18,0.74,12.57,1.52,18.87,2.06a0.241,0.241,0,0,1,.08.46c-5.55,2.6-11.76,1.96-17.76,1.34-0.72-.07-1.44-0.15-2.15-0.22C3088.62,3086.65,3081.46,3086.15,3074.51,3087.65Zm107.33,5.77c-1.75,2.64-4.46,4.49-7.09,6.27-0.87.6-1.78,1.22-2.61,1.84-3.83,2.88-8.17,6.13-13.12,8.33-5.21,3.8-11.21,5.17-17.44,5.17-6.83,0-13.93-1.65-20.55-3.57a97.271,97.271,0,0,1-21.75-9.15c-2.77-1.63-5.47-3.46-8.07-5.24-0.64-.43-1.28-0.86-1.91-1.29l-1.62-1.08a37.763,37.763,0,0,1-7.25-5.68,0.244,0.244,0,0,1-.06-0.23,0.262,0.262,0,0,1,.17-0.17c8.9-2.59,18.33,1.35,24.68,5.11l2.43,1.44c7.7,4.6,14.98,8.94,23.45,11.56,7.32,2.26,18.38,5.67,27,2.57,2.97-1.07,5.37-3.33,7.69-5.51,0.78-.74,1.59-1.5,2.4-2.2,3.82-3.26,8.14-6.96,13.38-8.53a0.237,0.237,0,0,1,.27.08A0.24,0.24,0,0,1,3181.84,3093.42Zm2.59-4.63a20.5,20.5,0,0,1-6.08,3.28,28,28,0,0,0-4.3,2,42.488,42.488,0,0,0-6.98,5.77c-0.57.54-1.13,1.08-1.69,1.61-3.07,2.85-6.15,5.49-10.15,6.45a19.257,19.257,0,0,1-4.54.49,45.8,45.8,0,0,1-6-.49,89.24,89.24,0,0,1-21.65-5.85,64.632,64.632,0,0,1-10.58-5.28c-1.3-.83-2.56-1.76-3.78-2.66a43.579,43.579,0,0,0-5.81-3.84,0.262,0.262,0,0,1-.13-0.28,0.258,0.258,0,0,1,.24-0.18h0.01c7.22,0.24,14.26-1.74,20.8-3.91l0.46-.15c3.41-1.14,6.94-2.31,10.39-3.5,0.73-.25,1.48-0.55,2.2-0.83a20.288,20.288,0,0,1,7-1.81c0.06,0,.11-0.01.17-0.01a20.98,20.98,0,0,1,5.84,1.12,33.465,33.465,0,0,0,3.58.9,54.963,54.963,0,0,0,5.98.57c1.64,0.1,3.34.2,4.99,0.42,5.85,0.8,13.41,2.17,19.98,5.79a0.225,0.225,0,0,1,.13.18A0.235,0.235,0,0,1,3184.43,3088.79Zm6.64-4.37h-0.02a2.024,2.024,0,0,1-.26-0.04c-1.1-.16-2.22-0.29-3.3-0.42-5.51-.65-11.2-1.33-15.68-5.03-3.51-2.88-5.78-6.87-7.78-10.39-0.32-.56-0.65-1.12-0.99-1.69-1.6-2.7-3.26-5.5-3.64-8.65a0.228,0.228,0,0,1,.09-0.22,0.214,0.214,0,0,1,.23-0.04c2.84,1.02,5.21,2.98,7.5,4.88,0.49,0.41.98,0.82,1.47,1.22,2.69,2.16,5.42,4.47,8.34,7.08,0.7,0.63,1.4,1.25,2.11,1.88,2.26,1.99,4.59,4.05,6.73,6.24,0.38,0.39.77,0.89,1.2,1.41,1.11,1.4,2.37,2.97,3.8,3.25,0.08,0.01.16,0.03,0.24,0.04a0.232,0.232,0,0,1,.2.27A0.239,0.239,0,0,1,3191.07,3084.42Zm1.47-3.04a0.233,0.233,0,0,1-.2.1h-0.06c-3.33-.86-5.89-3.29-8.37-5.64l-0.64-.61c-1.48-1.4-2.96-2.86-4.38-4.28-1.8-1.78-3.66-3.62-5.56-5.36a76.887,76.887,0,0,0-10.28-7.82c-3.34-2.16-6-4.12-7.25-8.02-0.04-.14-0.11-0.34-0.19-0.58-1.1-3.24-2.11-6.69-1.28-7.75a1.591,1.591,0,0,1,1.18-.66c1.65-.16,3.77,1.77,5.06,2.92,0.2,0.18.38,0.34,0.52,0.46a156.919,156.919,0,0,1,18.62,18.5c0.01,0.01.01,0.02,0.02,0.03,0.7,1.1,1.39,2.21,2.08,3.32,1.3,2.08,2.63,4.23,4.04,6.28,1.03,1.51,2.19,2.96,3.31,4.37,1.15,1.44,2.33,2.92,3.38,4.47A0.225,0.225,0,0,1,3192.54,3081.38Zm26.22,10.07a1.8,1.8,0,0,1-1.26.51,0.277,0.277,0,0,0-.09.01,1.618,1.618,0,0,0-.18.1c-1.05.86-2.12,1.71-3.19,2.57-3.09,2.46-6.29,5.02-9.2,7.79-1.72,1.64-3.37,3.39-4.97,5.09-1.81,1.92-3.68,3.91-5.66,5.74a31.994,31.994,0,0,1-13.26,7.26c-1.16.35-2.4,0.64-3.6,0.92-3.42.81-6.95,1.64-9.64,3.79h0.24c3.3,0,6.52-1.16,9.64-2.28q1.065-.39,2.13-0.75c4.32-1.47,9.21-3.13,13.19-6.37a78.958,78.958,0,0,0,7.6-7.48c1.18-1.27,2.41-2.6,3.65-3.85l0.67-.67c2.81-2.86,6-6.09,10.14-6.89a0.223,0.223,0,0,1,.25.1,0.24,0.24,0,0,1-.01.28,45.07,45.07,0,0,1-6.57,6.81c-0.98.88-1.99,1.79-2.94,2.72-1.39,1.35-2.76,2.78-4.07,4.17-1.72,1.81-3.49,3.67-5.35,5.39-6.14,5.64-13.78,9.06-21.17,12.37-1.42.63-2.84,1.26-4.24,1.91a141.047,141.047,0,0,0-22.03,12.48l-1.84,1.29c-5.72,4.04-11.63,8.21-18.25,10.95a16.2,16.2,0,0,1-5.65,1.44,3.41,3.41,0,0,1-2.38-.76c-0.97-.9-1.05-2.56-0.25-4.95,2.44-7.28,8.69-11.62,15.08-15.23,4.99-2.82,10.21-5.4,15.26-7.9,2.2-1.08,4.39-2.16,6.57-3.27l1.28-.65a74.843,74.843,0,0,1,9.69-4.37,55.918,55.918,0,0,1,5.94-1.56c1.38-.31,2.8-0.63,4.18-1.02,7.82-2.2,13.94-7.2,20.57-13.01a122.7,122.7,0,0,1,9.63-7.69,50.2,50.2,0,0,1,5.91-3.49c0.78-.41,1.58-0.84,2.38-1.28,0.04-.04.08-0.07,0.12-0.11a0.3,0.3,0,0,1,.1-0.04,0.637,0.637,0,0,1,.07-0.02c0.4-.22.8-0.45,1.19-0.69a0.223,0.223,0,0,1,.21-0.02,0.2,0.2,0,0,1,.14.14A0.589,0.589,0,0,1,3218.76,3091.45Zm0.78,2.89a0.235,0.235,0,0,1-.08-0.02h-0.01c-0.02-.01-0.05-0.02-0.07-0.03l-0.09-.03a0.211,0.211,0,0,1-.15-0.19,0.256,0.256,0,0,1,.08-0.23,0.226,0.226,0,0,1,.24-0.03h0l0.12,0.04c0.02,0.01.03,0.01,0.05,0.02a0.241,0.241,0,0,1,.14.31A0.247,0.247,0,0,1,3219.54,3094.34Zm10.01-6.58h-0.05a0.265,0.265,0,0,1-.18-0.11,0.223,0.223,0,0,1-.02-0.21c0.11-.31.26-0.44,0.45-0.38a0.3,0.3,0,0,1,.2.37A0.394,0.394,0,0,1,3229.55,3087.76Z" transform="translate(-2887 -2858)"/>
</svg>
