<svg xmlns="http://www.w3.org/2000/svg" width="301.94" height="186.53" viewBox="0 0 301.94 186.53">
  <defs>
    <style>
      .cls-1 {
        fill: #D8DADB;
        fill-rule: evenodd;
      }
    </style>
  </defs>
  <path id="concept-deco01.svg" class="cls-1" d="M3546.65,2585.62c2.2-3.03,4.55-6.04,6.82-8.94,1.71-2.18,3.48-4.44,5.16-6.69a118.134,118.134,0,0,1,9.13-10.36c1.43-1.5,2.91-3.04,4.32-4.61a92.693,92.693,0,0,0,7.02-9.09c3.91-5.5,7.94-11.18,13.97-14.96l0.56-.35c4.04-2.54,11.57-7.28,16.01-4.64a3.851,3.851,0,0,1,1.91,2.68,8.4,8.4,0,0,1-1.77,6.09c-2.96,3.88-7.22,6.97-11.34,9.95-0.8.58-1.59,1.15-2.36,1.72a141.286,141.286,0,0,0-27.86,27.69c-5.79,7.43-11.58,15.05-17.18,22.42q-4.155,5.46-8.32,10.91-1.05,1.38-2.07,2.79c-3.09,4.2-6.29,8.54-10.9,11.32a59.121,59.121,0,0,0-8.11,5.85c-0.67.57-1.43,1.08-2.24,1.64a13.342,13.342,0,0,0-4.15,3.73,0.225,0.225,0,0,0-.01.21,0.214,0.214,0,0,0,.17.12,9.861,9.861,0,0,0,5.06-1.24c0.36-.16.72-0.32,1.08-0.46,1.26-.52,2.57-1.01,3.83-1.49,1.1-.41,2.2-0.83,3.29-1.27,3.23-1.28,6.49-2.63,9.65-3.93,2-.82,3.99-1.64,5.99-2.45,5.69-2.31,11.52-4.55,17.16-6.71,4.35-1.67,8.85-3.39,13.26-5.14a160.442,160.442,0,0,0,47.71-28.86c1.01-.91,2.07-1.81,3.1-2.69,5.34-4.56,10.86-9.28,13.16-16.17a42.956,42.956,0,0,1,5.95-12.08l0.18-.25a9.448,9.448,0,0,1,3.27-3.26c0.31-.15.58-0.27,0.84-0.38a3.069,3.069,0,0,0,2.16-2.18,12.969,12.969,0,0,0,.04-5.85,17.139,17.139,0,0,1-.26-4.31c0.14-1.19.59-3.3,2.03-4.01a1.581,1.581,0,0,1,2.06.35,3.291,3.291,0,0,0,1.38.78c1.74,0.4,3.29-1.18,4.79-2.71a10.829,10.829,0,0,1,2.41-2.05,3.312,3.312,0,0,1,2.26-.4,2.46,2.46,0,0,1,.62.3,1.892,1.892,0,0,0,1.18.39c1.18-.24,1.72-2.04,2.11-3.36a8.584,8.584,0,0,1,.33-1.01,15.678,15.678,0,0,1,3.69-4.77,16.421,16.421,0,0,0,3.68-4.65,22.563,22.563,0,0,0,1.13-3.3c0.6-2.07,1.16-4.02,2.73-5.58,0.54-.53,2.38-2.21,3.47-1.39,0.89,0.67.11,2.25-.41,3.3-0.1.2-.19,0.39-0.26,0.55q-0.4.93-.84,1.86a30.214,30.214,0,0,0-2.8,8.07,1.439,1.439,0,0,0-.09,1.08,0.237,0.237,0,0,0,.24.15,0.234,0.234,0,0,0,.19-0.21c0.02-.29.05-0.59,0.09-0.89a5.357,5.357,0,0,1,.73-0.97,4.605,4.605,0,0,0,.47-0.58,22.373,22.373,0,0,0,2.19-4.2c0.26-.62.52-1.24,0.77-1.87a69.4,69.4,0,0,1,3.22-7.1c3.16-5.76,7.47-10.92,11.65-15.64l0.35-.39c2.13-2.4,4.33-4.89,7.38-6.13,0.54-.22,1.09-0.39,1.64-0.56a15.276,15.276,0,0,0,2.35-.89,16.031,16.031,0,0,0,2.57-1.77c0.5-.4,1.02-0.82,1.56-1.18a25.914,25.914,0,0,1,7.12-2.91c3.44-1.03,7.01-2.09,9.52-5.04h0.01a0.232,0.232,0,0,0-.03-0.31,0.221,0.221,0,0,0-.31.02c-0.04.01-.43,0.08-0.66,0.11a5.793,5.793,0,0,0-.67.14,6.874,6.874,0,0,0-.84.45,5.265,5.265,0,0,1-.64.37c-1.01.47-2.02,0.92-3.04,1.37-0.14.06-.29,0.13-0.43,0.19a18.854,18.854,0,0,1,4.88-3.42c0.2-.09.41-0.2,0.63-0.32,1.43-.76,2.58-1.25,3.35-0.15,0.96,1.36-1.05,3.8-2.01,4.98l-0.2.24c-3.01,3.73-8.39,8.05-13.87,8.31a17.707,17.707,0,0,1,4.25-2.78,15.465,15.465,0,0,0,4.9-3.45,0.212,0.212,0,0,0-.1-0.35c-2.99-1-6.55.93-9.15,2.33l-0.19.1c-3.27,1.76-5.03,3.98-5.56,6.99a0.22,0.22,0,0,0,.07.2,0.208,0.208,0,0,0,.2.05c0.48-.12.97-0.29,1.49-0.47,1.76-.61,3.58-1.24,5.1-0.06a2.027,2.027,0,0,1,.94,1.59c-0.01.94-.82,2.02-2.41,3.21l-0.79.59c-2.29,1.7-4.28,3.17-5.81,5.84a9.934,9.934,0,0,1-5.95,5.78c-1.33.52-2.84,1.12-3.3,2.24s0.21,1.94.81,2.67a2.44,2.44,0,0,1,.86,2c-0.39,1.9-3.4,2.68-5.59,3.25-0.69.18-1.29,0.34-1.75,0.51a10.182,10.182,0,0,0-5.91,4.88,0.217,0.217,0,0,0,0,.22,0.237,0.237,0,0,0,.19.11h0.13c1.79,0.06,4.24.15,5.06,1.36a2.612,2.612,0,0,1,.03,2.37c-0.82,2.27-2.77,3.24-4.84,4.27a18.641,18.641,0,0,0-2.94,1.71,3.817,3.817,0,0,0-1.71,2.75c-0.05.21-.1,0.44-0.17,0.7a5.568,5.568,0,0,1-2.8,3.49c-3.79,2.48-6.96,3.51-9.68,3.14a27.09,27.09,0,0,1,3.6-1.64c2.62-1.05,5.33-2.14,6.97-4.79a0.233,0.233,0,0,0,.02-0.2,0.243,0.243,0,0,0-.15-0.13c-4.45-1.22-6.87.63-10.05,3.58-2.38,2.22-3.2,4.88-4.08,7.7-0.13.42-.26,0.85-0.4,1.28a0.229,0.229,0,0,0,.04.21,0.209,0.209,0,0,0,.19.08l0.95-.12c1.91-.26,3.87-0.53,5.4.71a2.829,2.829,0,0,1,.8,1,1.952,1.952,0,0,1,.19.79,3.67,3.67,0,0,1-1.47,2.66,13.568,13.568,0,0,1-4.2,2.16c-2.52.96-5.13,1.96-5.91,4.8-0.09.35-.17,0.67-0.25,0.98-0.42,1.7-.7,2.82-2.47,4.04a16.66,16.66,0,0,1-3.19,1.59,21.1,21.1,0,0,0-2.84,1.36,8.446,8.446,0,0,0-2.73,3.11,12.962,12.962,0,0,1-1.54,2.16,7.03,7.03,0,0,1-5,2c-0.6.05-1.22,0.05-1.82,0.05a13.832,13.832,0,0,0-3.62.32,11.739,11.739,0,0,0-4.54,2.79l-0.32.27c-2.1,1.77-4.17,3.64-6.16,5.46-1.69,1.52-3.43,3.1-5.18,4.61a197.713,197.713,0,0,1-24.48,18.42c-15.87,9.87-33.58,16.83-50.71,23.56q-3.135,1.23-6.26,2.47c-18.17,7.19-37.61,14.57-58.04,18.82-1.3.27-2.61,0.55-3.91,0.82a264.658,264.658,0,0,1-26.28,4.61c-7.09.76-14.69,1.28-23.55,1.6,2.45-.35,4.88-0.79,7.27-1.23,3.68-.68,7.46-1.37,11.26-1.7q2.04-.03,4.05-0.21a0.214,0.214,0,0,0,.2-0.23,0.22,0.22,0,0,0-.22-0.21c-1.35.02-2.71,0.09-4.05,0.21a54.917,54.917,0,0,1-8.15-.52c1.68-.06,3.35-0.27,4.99-0.47,0.78-.09,1.56-0.19,2.33-0.27,1.71-.18,3.44-0.33,5.12-0.48,2.26-.2,4.59-0.41,6.88-0.67a138.009,138.009,0,0,0,22.43-4.8,78.912,78.912,0,0,0,37.25-23.43c6.74-7.45,12.61-15.78,18.28-23.84C3542.56,2591.34,3544.6,2588.44,3546.65,2585.62Zm136.83-80.56a1.018,1.018,0,0,0-.9-0.82,0.2,0.2,0,0,0-.19.07c-0.97,1.07-5.7,6.66-4.14,10.81a0.02,0.02,0,0,1,.01.02,0.236,0.236,0,0,0,.14.12,0.219,0.219,0,0,0,.19-0.03C3679.66,2514.45,3684.07,2507.41,3683.48,2505.06Zm-41.71,50.58a16.591,16.591,0,0,0-2,8.98,0.145,0.145,0,0,0,.02.07,0.227,0.227,0,0,0,.32.1,14.3,14.3,0,0,0,3.36-3.67c0.3-.42.61-0.85,0.92-1.26,1.2-1.13,4.1-5.59,4.06-8.19a2.018,2.018,0,0,0-.6-1.51,1.226,1.226,0,0,0-1.09-.29C3644.59,2550.28,3641.79,2555.59,3641.77,2555.64Zm12.47-24.31v-0.01a0.229,0.229,0,0,0-.15-0.12,0.225,0.225,0,0,0-.19.04c-1.65,1.33-1.59,3.15-1.52,5.07,0.01,0.48.03,0.98,0.02,1.48a0.3,0.3,0,0,0,.02.1,0.22,0.22,0,0,0,.16.12,0.229,0.229,0,0,0,.25-0.14c0.17-.47.41-0.95,0.65-1.46C3654.22,2534.9,3655.06,2533.19,3654.24,2531.33Zm8.62-3.63a0.235,0.235,0,0,0-.13.05c-3.7,3.31-7.89,7.06-8.95,12.67a6.566,6.566,0,0,0,.36,3.82,3.154,3.154,0,0,0,1.37,1.54c0.69,0.35,2.13.65,4.07-1.38,1.52-1.6,7.03-12.15,5.47-15.56a0.02,0.02,0,0,0-.01-0.02A2.011,2.011,0,0,0,3662.86,2527.7Zm42.08-40.13,1.19-.55c1.06-.49,4.39-3.06,4.39-4.84a1.349,1.349,0,0,0-.9-1.26c-1.75-.81-5.04,1.95-8.03,4.77-0.2.19-.37,0.35-0.51,0.47a40.467,40.467,0,0,0-7.31,8.57,0.222,0.222,0,0,0-.01.21,0.209,0.209,0,0,0,.04.06,0.227,0.227,0,0,0,.27.04,2.929,2.929,0,0,0,1.53-1.68C3698.46,2490.54,3701.46,2489.16,3704.94,2487.57Zm13.19-3.91a0.23,0.23,0,0,0,.01-0.24,0.223,0.223,0,0,0-.22-0.11c-0.21.03-.88,0.21-1.65,0.42s-1.89.51-2.12,0.53a0.234,0.234,0,0,0-.18.03c-0.55.35-1.14,0.69-1.71,1.02-2.3,1.34-4.68,2.72-5.82,5.26a0.277,0.277,0,0,0,0,.18,0.1,0.1,0,0,0,.04.05,0.205,0.205,0,0,0,.22.07C3710.26,2489.89,3715.12,2487.84,3718.13,2483.66Zm-12.35,14.43a14.178,14.178,0,0,0,4.94-6.37,0.226,0.226,0,0,0-.27-0.3,24.564,24.564,0,0,0-7.32,4.2c-0.85.63-1.73,1.27-2.63,1.87a23.845,23.845,0,0,1,1.72-2.71,13.684,13.684,0,0,0,2.63-5.25,0.262,0.262,0,0,0-.05-0.19,0.241,0.241,0,0,0-.18-0.07c-2.51.08-5.82,2.05-7.33,3.84a3.152,3.152,0,0,0-.67,3.33c0.03,0.15.06,0.31,0.1,0.48a9.46,9.46,0,0,1-.79,5.24,0.248,0.248,0,0,0,0,.17c0.02,0.03.04,0.05,0.06,0.08a0.226,0.226,0,0,0,.26.01,23.3,23.3,0,0,1,4.64-2.09A22.238,22.238,0,0,0,3705.78,2498.09Zm-14.5,7.11c0.54-.5,1.1-1.01,1.63-1.55,1.75-1.82,2.49-3.27,2.33-4.56a3.547,3.547,0,0,0-1.9-2.49,0.213,0.213,0,0,0-.27.04,29.98,29.98,0,0,0-4.07,6.05c-0.29.52-.58,1.04-0.88,1.55-0.26.44-.54,0.88-0.82,1.33-1.11,1.75-2.26,3.56-2.24,5.65a0.292,0.292,0,0,0,.02.09,0.236,0.236,0,0,0,.08.09,0.246,0.246,0,0,0,.22.02,7.334,7.334,0,0,0,2.69-2.7c0.27-.38.55-0.77,0.84-1.13A23.255,23.255,0,0,1,3691.28,2505.2Zm10.91-.23a1.721,1.721,0,0,0-1.24-1.5c-1.47-.76-3.86.12-5.6,0.77-0.42.15-.81,0.3-1.14,0.4-0.02.01-.05,0.02-0.07,0.03a10.654,10.654,0,0,1-.9.58c-1.6.98-4.28,2.62-4.33,4.04a1.176,1.176,0,0,0,.1.5,1.558,1.558,0,0,0,.53.6c1.3,0.92,3.63-.3,5.5-1.29a16.629,16.629,0,0,1,1.58-.77c0.1-.03.23-0.08,0.39-0.13C3699.52,2507.33,3702.1,2506.28,3702.19,2504.97Zm-7.33,13.6a1.516,1.516,0,0,0-.4-1.36,2.892,2.892,0,0,0-2.53-.25c-3.32.72-6.13,4-6.13,7.15a0.149,0.149,0,0,0,.02.09,0.224,0.224,0,0,0,.2.13,0.222,0.222,0,0,0,.22-0.22c0-.61,2.41-1.25,3.31-1.49l0.38-.1c0.15-.04.27-0.07,0.35-0.1C3691.29,2522.06,3694.62,2520.71,3694.86,2518.57Zm-10.51,7.3a0.237,0.237,0,0,0,.15-0.09,0.179,0.179,0,0,0,.04-0.17c-0.47-2.57.72-4.75,1.97-7.05,1.05-1.95,2.15-3.97,2.15-6.24a0.223,0.223,0,0,0-.09-0.17,0.2,0.2,0,0,0-.18-0.05c-2.89.64-4.34,3.01-5.73,5.3l-0.28.44a59.956,59.956,0,0,0-4.72,9.14,0.226,0.226,0,0,0,.01.18,0.209,0.209,0,0,0,.04.06,0.239,0.239,0,0,0,.24.05A21.184,21.184,0,0,1,3684.35,2525.87Zm-11.85,5.24q0.435-.525.84-0.99a21.484,21.484,0,0,0,4.26-6.15c0.52-1.31,1.74-5.35.43-6.62-0.52-.51-1.34-0.52-2.44-0.04a0.147,0.147,0,0,0-.04.02c-5.46,4.02-7.09,10.82-8.3,17.44a0.191,0.191,0,0,0,.02.13,0.179,0.179,0,0,0,.05.07,0.221,0.221,0,0,0,.19.06C3669.59,2534.59,3671.13,2532.74,3672.5,2531.11Zm-6,3.2a5.512,5.512,0,0,1,.26-1.48c0-.01.01-0.02,0.01-0.03,0.3-.73.59-1.46,0.89-2.18a0.233,0.233,0,0,0-.02-0.2,0.209,0.209,0,0,0-.16-0.11c-0.31-.03-1.26-0.14-2.31,6.52l-0.01.08a0.236,0.236,0,0,0,.01.12,0.179,0.179,0,0,0,.05.07,0.252,0.252,0,0,0,.2.06C3666.23,2536.97,3666.37,2535.62,3666.5,2534.31Zm3.41,1.93a0.25,0.25,0,0,0-.08-0.18,0.212,0.212,0,0,0-.19-0.04c-3.1.66-6.49,4.78-7.56,7.45a0.2,0.2,0,0,0,.01.17,0.106,0.106,0,0,0,.02.05,0.235,0.235,0,0,0,.21.08C3667.05,2543.16,3669.82,2540.41,3669.91,2536.24Zm-17.02,9.53a0.225,0.225,0,0,0-.14-0.17,0.218,0.218,0,0,0-.23.04c-1.69,1.47-2.28,3.7-2.85,5.86-0.15.58-.31,1.17-0.48,1.73a0.181,0.181,0,0,0,.01.16,0.259,0.259,0,0,0,.1.11,0.233,0.233,0,0,0,.28-0.08c0.19-.29.41-0.59,0.64-0.91C3651.56,2550.62,3653.22,2548.27,3652.89,2545.77Zm23.12-1.6a1.734,1.734,0,0,0-.34-1.79c-1.03-.95-3.43-0.21-3.9-0.05a35.743,35.743,0,0,0-3.64,1.53c-1.14.53-2.32,1.08-3.52,1.5-3.04,1.04-3.55,2.63-4.39,5.26l-0.13.42a0.181,0.181,0,0,0,.01.16,0.076,0.076,0,0,0,.02.04,0.214,0.214,0,0,0,.18.09c2.51,0,4.97-1.14,7.35-2.24,0.66-.3,1.35-0.62,2.01-0.9,0.19-.08.38-0.15,0.57-0.23,0.31-.12.67-0.24,1.05-0.37C3673.17,2546.93,3675.52,2546.12,3676.01,2544.17Zm-17.65,14.78c2.2-1.49,4.47-3.03,5.51-5.58a0.232,0.232,0,0,0-.01-0.2,0.206,0.206,0,0,0-.17-0.1,13.06,13.06,0,0,0-5.8,1.15,15.254,15.254,0,0,1-4.68,1.17,21.124,21.124,0,0,1,3.03-3.3,18.17,18.17,0,0,0,3.65-4.29,0.23,0.23,0,0,0-.01-0.24,0.243,0.243,0,0,0-.21-0.09c-3.43.55-5.29,2.14-7.73,4.51l-0.28.27c-1.73,1.67-4.1,3.95-3.79,6.54a2.855,2.855,0,0,0,.22.8,2.14,2.14,0,0,0,.7.85c1.47,1.05,4.29.45,6.36,0.01,0.55-.11,1.03-0.22,1.4-0.27a0.178,0.178,0,0,0,.1-0.04C3657.2,2559.74,3657.79,2559.34,3658.36,2558.95Zm-5.3,4.29a0.222,0.222,0,0,0-.01-0.21,0.214,0.214,0,0,0-.19-0.11c-0.88.01-1.78-.03-2.65-0.07a20.2,20.2,0,0,0-6.29.35,0.333,0.333,0,0,0-.1.06c-1.08,1.15-1.48,2.07-1.2,2.74a0.227,0.227,0,0,0,.01.04c0.3,0.64,1.17.97,2.69,1C3649.28,2567.12,3651.81,2565.88,3653.06,2563.24Zm-118.18,40.91c-0.8,1.01-1.65,2.03-2.48,3.02a52.715,52.715,0,0,0-6.57,9.12,0.226,0.226,0,0,0,.32.29,19.251,19.251,0,0,0,4.62-4.78c0.37-.48.73-0.96,1.1-1.42,1.31-1.62,2.71-3.21,4.06-4.75,0.58-.67,1.17-1.33,1.75-2,4.92-5.69,8.87-10.35,12.42-14.65s7.07-8.76,10.47-13.06l1.18-1.5c0.63-.79,1.26-1.58,1.88-2.36,1.3-1.63,2.65-3.31,3.92-5,0.28-.36.56-0.74,0.83-1.12a18.389,18.389,0,0,1,3.73-4.17,85.609,85.609,0,0,1-8.45,11.16c-1.23,1.45-2.5,2.95-3.71,4.46-2.53,3.16-5,6.47-7.38,9.66-1.81,2.42-3.67,4.91-5.55,7.34-5.53,7.11-11.68,13.89-17.63,20.44-3.52,3.88-7.16,7.89-10.63,11.92a0.213,0.213,0,0,0-.03.24,0.219,0.219,0,0,1,.03.05,0.23,0.23,0,0,0,.29.04c8.36-5.5,16.42-12.99,25.37-23.56,5.32-6.29,10.32-13.03,15.16-19.56,7.11-9.6,14.47-19.53,22.99-28.18a90.118,90.118,0,0,1,11.73-9.5,99.339,99.339,0,0,0,10.68-8.46c2.03-1.94,5.83-5.55,4.84-8.92a2.985,2.985,0,0,0-2.04-2.19c-4.43-1.38-14.21,5.61-16.59,7.56a58.146,58.146,0,0,0-8.6,9.49l-0.91,1.18c-0.81,1.03-1.61,2.07-2.41,3.11-2.27,2.94-4.61,5.98-7.12,8.79-1.2,1.35-2.51,2.65-3.77,3.91a56.808,56.808,0,0,0-5.92,6.54c-5.47,7.47-11.85,16.16-18.34,24.69q-1.545,2.055-3.09,4.12C3539.03,2598.75,3536.98,2601.5,3534.88,2604.15Z" transform="translate(-3432.94 -2465.47)"/>
</svg>
