<svg xmlns="http://www.w3.org/2000/svg" width="404.16" height="382.84" viewBox="0 0 404.16 382.84">
  <defs>
    <style>
      .cls-1 {
        fill: #D8DADB;
        fill-rule: evenodd;
      }
    </style>
  </defs>
  <path id="concept-deco03.svg" class="cls-1" d="M2294.89,3484.77c0.72-.88,1.82-2.22,2.77-2.1a3.458,3.458,0,0,1,1.79,1.69,0.905,0.905,0,0,1,.09.8,0.241,0.241,0,0,0,.08.33,0.232,0.232,0,0,0,.33-0.08c0.72-1.17,2.4-3.93,4.16-4.34a1.808,1.808,0,0,1,1.46.26,0.243,0.243,0,0,0,.34-0.07,16.091,16.091,0,0,1,1.72-2.08c0.32-.35.63-0.69,0.93-1.04a24.074,24.074,0,0,0,2.24-1.43c2.77-1.89,6.94-4.75,8.59-3.04a0.27,0.27,0,0,1,.07.08c1.64,1.9-2.11,5.82-3.72,7.5-0.18.18-.33,0.35-0.46,0.48a8.037,8.037,0,0,1-.88.78,5.829,5.829,0,0,0-1.61,1.71c-0.7,1.53.28,2.17,1.13,2.73a4.293,4.293,0,0,1,1.13.94c1.02,1.38-.47,3.1-1.66,4.48-0.31.36-.61,0.7-0.83,1.01a0.242,0.242,0,0,0,.35.33,5.582,5.582,0,0,1,1.38,1.53,3.009,3.009,0,0,1-.05,2.28c-0.85,2.1-2.86,3.6-4.64,4.92l-0.36.27a0.23,0.23,0,0,0-.05.33,5.745,5.745,0,0,0,.84.87c0.72,0.66,1.34,1.22,1.05,2.24a3.039,3.039,0,0,1-1.57,1.55l-3.91,2.34h0a0.243,0.243,0,0,0-.08.33,0.253,0.253,0,0,0,.33.09,11.14,11.14,0,0,1,3.23,1.15v0.01c0.45,0.52.21,1.21-.08,2l-0.05.15a11.965,11.965,0,0,1-5.22,6.43,58.916,58.916,0,0,1-6.28,2.84c-3.49,1.42-7.1,2.89-10.07,5.4-3.35,2.83-7.14,7.79-10.14,13.26-0.68,1.23-1.67,3.4-.92,4.06,0.49,0.42,1.47.08,3.01-1.06a36.41,36.41,0,0,0,4.48-4.23c2.09-2.19,4.24-4.47,6.95-5.71,0.62-.28,1.44-0.54,1.82-0.17l0.04,0.04c0.39,0.46.26,1.69-.37,3.23a27.683,27.683,0,0,1-2.72,4.72c-0.54.81-1.1,1.65-1.59,2.48a42.422,42.422,0,0,1-4.63,6.83,0.242,0.242,0,0,0-.01.31,0.231,0.231,0,0,0,.29.07,18.557,18.557,0,0,1,6.67-1.72,7.843,7.843,0,0,1-3.52,5.4,14.644,14.644,0,0,0,2.09-3.61l0.18-.39a0.229,0.229,0,0,0-.03-0.25v-0.01a0.268,0.268,0,0,0-.24-0.07c-7.3,1.75-13.13,5.51-15.99,10.31a0.225,0.225,0,0,0,.01.27,0.01,0.01,0,0,1,.01.01,0.246,0.246,0,0,0,.26.07c2.96-.94,5.88-2.11,8.72-3.29-0.52.35-1.03,0.72-1.54,1.14a9.054,9.054,0,0,0-2.48,3.9,14.4,14.4,0,0,1-1.22,2.5,20.236,20.236,0,0,1-4.18,4.24,24.909,24.909,0,0,0-3.55,3.34,0.264,0.264,0,0,0-.04.23,0.216,0.216,0,0,0,.17.15,17.133,17.133,0,0,0,5.62.14,17.84,17.84,0,0,1,5.16.05,4.984,4.984,0,0,1,3.71,2.92,4.358,4.358,0,0,1-.58,4.19c-1.78,2.59-5.46,2.73-8.41,2.85-0.36.01-.71,0.03-1.04,0.04-3.73.2-6.53,0.86-8.93,3.55-0.72.82-1.38,1.67-2.02,2.49-1.95,2.52-3.79,4.9-7.16,5.83a26.812,26.812,0,0,1-3.04.61c-2.54.42-4.94,0.81-6.95,3.12-2.11,2.44-3.19,5.59-4.23,8.64-0.31.91-.62,1.84-0.96,2.72-0.13.34-.26,0.68-0.4,1.02-1.19,3.06-2.43,6.23-1.52,9.54a0.238,0.238,0,0,0,.15.16,0.223,0.223,0,0,0,.21-0.02,15.16,15.16,0,0,0,1.49-1.26c1.67-1.51,4.21-3.81,5.63-3.38a1.569,1.569,0,0,1,.97,1.28c0.46,1.77-.58,3.54-1.68,5.41-0.92,1.55-1.87,3.16-1.87,4.79a3.157,3.157,0,0,0,.9,2.65c0.98,0.77,2.54.41,4.05,0.06,1.9-.43,3.68-0.84,4.24.83,0.63,1.9-2.92,4.89-4.62,6.32-0.27.23-.5,0.42-0.68,0.58-0.34.3-.79,0.65-1.32,1.04-2.1,1.6-4.99,3.79-4.34,6.1,0.57,2.03,2.79,2.42,4.94,2.8,1.84,0.33,3.74.67,4.53,2.02a2.045,2.045,0,0,1-.53,3.01c-3.46,2.57-14.61,1.89-17.4-.34a11.138,11.138,0,0,1,5.65-.1c0.6,0.09,1.22.19,1.83,0.25a17.64,17.64,0,0,0,8.61-1.01,0.254,0.254,0,0,0,.14-0.18,0.286,0.286,0,0,0-.06-0.22c-3.31-3.3-7.85-3.96-13.5-1.96-2.27.81-4.61,1.81-5.94,4.37-0.34.63-.64,1.24-0.93,1.83a29.5,29.5,0,0,1-3.66,6.01c-6.46,7.83-10.67,17.2-14.73,26.26q-1,2.25-2.03,4.49c-1.01,2.21-2.01,4.44-3.01,6.67-3.9,8.71-7.93,17.73-13,25.96-5.71,9.28-13.78,18.05-24.66,26.84-3.09,2.49-6.04,5.2-8.89,7.83-1.69,1.55-3.44,3.16-5.2,4.71a66.227,66.227,0,0,1-6.14,4.59,51.67,51.67,0,0,0-7.84,6.21,0.233,0.233,0,0,0-.05.26,0.226,0.226,0,0,0,.21.15,54.146,54.146,0,0,0,10.05-.92c1.4-.22,2.84-0.44,4.27-0.61,2.4-.29,4.87-0.35,7.25-0.41,2.32-.05,4.71-0.1,7.07-0.37,9.45-1.08,18.19-5.29,26.23-9.67,0.67-.37,1.35-0.73,2.04-1.1a42.165,42.165,0,0,0,9.18-5.93c3.26-3.03,4.45-7.11,5.3-10.7,1.01-4.22,1.75-8.56,2.47-12.76,0.76-4.48,1.56-9.1,2.66-13.58,1.07-4.3,2.48-8.59,3.84-12.73,1.39-4.22,2.82-8.58,3.9-12.97,0.41-1.64.78-3.33,1.14-4.96,1.39-6.24,2.82-12.69,6.22-18.32,1.59-2.64,4.05-5.82,6.73-6.03a4.552,4.552,0,0,1,3.82,2.01c4.45,5.35,2.75,14.04,1.51,20.39l-0.02.1c-1.81,9.24-4.17,18.26-6.46,26.63-0.64,2.35-1.37,4.73-2.07,7.03-1.76,5.8-3.59,11.8-4.28,17.93a0.228,0.228,0,0,0,.09.22,0.232,0.232,0,0,0,.24.03c5.38-2.24,9.95-6.01,14.38-9.65,0.7-.58,1.41-1.16,2.11-1.73,2.4-1.94,4.8-3.95,7.13-5.89,3.07-2.56,6.25-5.21,9.43-7.74,2.96-2.34,6.14-4.47,9.23-6.52,1.95-1.31,3.97-2.66,5.92-4.05,3.43-2.46,5.4-4.85,4.6-9.19-0.07-.39-0.15-0.83-0.25-1.3-0.84-4.3-2.4-12.29,1.38-14.83a2.936,2.936,0,0,1,2.72-.44c2.25,0.81,3.82,4.28,4.33,6.01,0.48,1.61,1.18,2.4,2.1,2.35,2.09-.11,4.26-4.72,4.62-6.63,1.22-6.53.28-10.4-2.78-11.51-1.43-.52-2.47-0.49-3.18.09-1.45,1.19-.98,4.35-0.56,7.13,0.12,0.79.23,1.55,0.28,2.19-0.15-.4-0.33-0.87-0.53-1.4-1.46-3.84-3.9-10.26-6.37-10.81a1.7,1.7,0,0,0-1.61.53c-1.4,1.36.34,4.1,1.88,6.53a17.662,17.662,0,0,1,1.71,3.09c-2.12-1.74-6.22-6.24-5.99-9.31a2.782,2.782,0,0,1,1.7-2.33c1.04-.51,3.46-0.87,4.21-0.33a3.46,3.46,0,0,1,.81,1.34c0.48,1.08,1.07,2.43,2.54,1.99,0.64-.18,1.06-0.88,1.22-2.01,0.3-2.08-.36-5.15-1.67-6a1.388,1.388,0,0,0-1.58.05,3.127,3.127,0,0,0-.8,1.5,3.116,3.116,0,0,1-.62,1.25,0.867,0.867,0,0,1-.37-0.5c-0.38-.8.13-3.3,0.63-4.1a5.742,5.742,0,0,1,2.12-1.87,5.564,5.564,0,0,0,2.65-2.84,15.137,15.137,0,0,0,.66-2.85,9.472,9.472,0,0,1,1.29-4.03,4.02,4.02,0,0,1,3.41-1.95,4.789,4.789,0,0,1,3.77,2.49c2.51,4.12,3.82,15.03-.37,18.48a35.046,35.046,0,0,1-.45-7.98,36.972,36.972,0,0,0-.33-7.42c-0.44-2.5-1.63-3.07-2.3-3.18-1.24-.22-2.65.75-3.67,2.53-2.06,3.59-2.64,10.79-1.19,14.81,0.65,1.82,2.16,2.74,3.61,3.62,1.51,0.93,2.93,1.79,3.49,3.6a0.255,0.255,0,0,0,.2.16,0.28,0.28,0,0,0,.24-0.1c0.42-.65.81-1.35,1.2-2.02a25.578,25.578,0,0,1,1.76-2.82c-0.37.87-.83,1.75-1.32,2.67-1.34,2.54-2.73,5.17-2.17,8.02a0.242,0.242,0,0,0,.13.18,0.264,0.264,0,0,0,.23-0.01c1.87-1.07,2.73-3.4,3.5-5.46,0.27-.72.52-1.4,0.8-2,0.07-.14.15-0.29,0.23-0.46,0.52-1.02,1.22-2.42.68-3.17a1.578,1.578,0,0,0-1.56-.43,8.855,8.855,0,0,1,1.2-1.17c0.8-.63,1.41-0.86,1.77-0.65,0.46,0.26.63,1.33,0.42,2.76-0.02.12-.05,0.31-0.07,0.56-0.31,2.47-.58,3.81-0.82,3.99a0.257,0.257,0,0,0-.1.33,0.247,0.247,0,0,0,.33.1h0.01c2.83-1.51,4.58-3.95,6.27-6.3a25.19,25.19,0,0,1,4.34-5.03,17.241,17.241,0,0,1,3.73-2.12,17,17,0,0,0,3.87-2.22,16.123,16.123,0,0,0,3.65-5.19c0.17-.33.35-0.66,0.52-0.99,0.65-1.21,1.36-2.42,2.04-3.59,0.76-1.31,1.55-2.67,2.27-4.04,0.17-.31.33-0.63,0.49-0.94,1.04-2.06,1.93-3.85,4.27-4.48a15.716,15.716,0,0,1,1.94-.37,8.619,8.619,0,0,0,3.76-1.2,18.938,18.938,0,0,0,4.57-4.7,0.284,0.284,0,0,0,.04-0.12,17.357,17.357,0,0,0,.14-1.94,0.272,0.272,0,0,0-.12-0.21,0.255,0.255,0,0,0-.24,0,19.89,19.89,0,0,0-3.98,3.2,15.642,15.642,0,0,1-4.79,3.56c-0.36-2.43.45-4.81,1.23-7.12,0.95-2.79,1.93-5.67.9-8.69a0.213,0.213,0,0,0-.18-0.16,0.22,0.22,0,0,0-.23.08c-1.77,2.22-2.28,4.94-2.77,7.58a18.606,18.606,0,0,1-2.06,6.49c-0.01-.47-0.01-1.01,0-1.57,0.03-2.71.06-6.08-1.64-7.63a3.521,3.521,0,0,0-2.84-.78c-1.48.16-2.4,0.67-2.75,1.49-0.77,1.84,1.53,4.77,2.9,6.52,0.17,0.22.33,0.41,0.46,0.59,0.72,0.95,3.07,5.29,2.42,6.05-0.17.2-.7,0.09-1.45-0.31-0.82-.44-1.1-1.69-1.37-2.89a7.785,7.785,0,0,0-.61-1.94,10.529,10.529,0,0,0-1.92-2.28c-1.32-1.31-2.57-2.54-2.28-4.43a4.507,4.507,0,0,1,1.64-2.47,5.231,5.231,0,0,0,1.74-2.52c0.46-1.92-.8-3.78-1.92-5.41-0.32-.49-0.64-0.94-0.88-1.37-2.35-4.08-4.65-8.75-2.14-12.73,1.41-2.22,4.53-4.79,7.32-5.22a0.214,0.214,0,0,0,.17-0.12,0.222,0.222,0,0,0,.01-0.21c-1.19-2.83.44-6.3,2.19-8.41a5.674,5.674,0,0,1,4.73-1.7,4.232,4.232,0,0,1,3.04,2.5c1.02,2.06,1.9,6.22.55,8.55a0.259,0.259,0,0,0,.05.31,0.24,0.24,0,0,0,.3.01,0.435,0.435,0,0,0,.07-0.06c0.88-.62,1.54-0.79,1.99-0.54,1.22,0.66,1.11,4.13,1.05,6.2-0.03.67-.04,1.25-0.02,1.61a0.258,0.258,0,0,0,.18.22,0.253,0.253,0,0,0,.26-0.1c0.26-.37.52-0.72,0.78-1.06a7.835,7.835,0,0,0,1.85-3.54,12.253,12.253,0,0,0,.08-2.49,10.881,10.881,0,0,1,.13-2.67,24.651,24.651,0,0,1,.79-2.71c0.9-2.69,1.92-5.75.23-8.18a0.247,0.247,0,0,0-.29-0.09c-0.88.37-2.7,3.93-3.88,6.77,0.1-.4.21-0.84,0.34-1.33,0.04-.18.08-0.32,0.09-0.39,0.48-1.95,1.77-5.86,3.31-6.67a1.027,1.027,0,0,1,.9-0.07c1.28,0.49,1.93,3.74,1.92,5.01a9.683,9.683,0,0,1-.24,1.75,4.863,4.863,0,0,0,.26,3.68,0.229,0.229,0,0,0,.36.06c0.51-.44,1.03-0.86,1.54-1.27a21.246,21.246,0,0,0,3.74-3.55,28.369,28.369,0,0,0,2.34-3.92c0.3-.58.6-1.16,0.92-1.72,0.53-.93,1.13-1.87,1.72-2.78a25.586,25.586,0,0,0,3.36-6.48c0.95-3.21.05-6.38-.82-9.45-0.78-2.73-1.59-5.56-1.12-8.45a7.734,7.734,0,0,1,1.29-3.69,1.447,1.447,0,0,1,1.79-.64,5.992,5.992,0,0,0,1.01.14,3.066,3.066,0,0,0,2.33-.75c1.43-1.3,1.53-4.05,1.62-6.25l0.01-.38c0.06-1.47-.3-4.86-1.73-5.36-0.7-.24-1.49.23-2.34,1.39-1.79,2.44-1.7,5.87-1.62,8.9,0,0.12,0,.25.01,0.37-1.77-4.14-1.44-9.6,2.28-12.37,1.89-1.4,2.58-.75,4.11.68l0.27,0.25c0.68,0.64,1.06.99,1.48,0.92s0.68-.47,1.18-1.42a26.144,26.144,0,0,0,2.1-7.51c0.11-.62.21-1.22,0.33-1.79,0.66-3.39,1.8-5.52,3.14-5.85,0.96-.23,2.07.45,3.3,2a0.271,0.271,0,0,0,.31.06,0.237,0.237,0,0,0,.1-0.3,9.388,9.388,0,0,1-.22-6.64c0.07-.22.15-0.51,0.24-0.83,0.51-1.82,1.47-5.2,3.11-5.48a1.454,1.454,0,0,1,1.41.35v0.01c0.7,0.81.41,2.8-.04,4.26a8.4,8.4,0,0,1-.46,1.07,5.31,5.31,0,0,0-.67,2.09,2.357,2.357,0,0,0,1.32,2.21,4.154,4.154,0,0,1,1.01.85c1.55,1.86.73,4.36,0.01,6.56l-0.15.45c-0.39,1.21-.79,2.43-1.18,3.64-0.69,2.11-1.38,4.22-2.05,6.33-0.15.47-.3,0.98-0.47,1.51-1.31,4.35-3.09,10.24-7.77,11.23a17.786,17.786,0,0,1,1.97-2.74,16.63,16.63,0,0,0,2.19-3.16,13.285,13.285,0,0,0,1.12-6.72,0.259,0.259,0,0,0-.13-0.2,0.236,0.236,0,0,0-.23.01c-3.2,1.83-4.45,5.23-5.65,8.51-0.41,1.11-.83,2.25-1.32,3.31a31.01,31.01,0,0,1,.72-5.93c0.52-2.75,1.06-5.59.5-8.46a0.24,0.24,0,0,0-.17-0.18,0.233,0.233,0,0,0-.24.06c-2.52,2.52-3.44,6.05-4.34,9.47-0.09.37-.19,0.74-0.29,1.1-0.02.1-.08,0.33-0.15,0.64-0.29,1.29-1.09,4.75-1.63,5.32a0.243,0.243,0,0,0-.01.32h0a0.246,0.246,0,0,0,.31.05c1.19-.72,2.05-0.08,3.05.66,1.11,0.83,2.37,1.76,4.23.85a18.5,18.5,0,0,0,4.83-3.87,16.47,16.47,0,0,1,5.39-4.1,7.31,7.31,0,0,1,6.01.12,4.741,4.741,0,0,1,2.37,3.42c0.62,3.3-2.38,5.65-4.8,7.53l-0.09.07a22.655,22.655,0,0,0-4.63,5.39,24.589,24.589,0,0,1-3.97,4.81,29,29,0,0,1-6.04,4.07c-0.79.39-1.61,0.72-2.42,1.03a15.4,15.4,0,0,0-4.78,2.6c-3.1,2.76-4.8,7.11-6.3,10.94l-0.35.87a33.9,33.9,0,0,0-1.76,7.95,41.325,41.325,0,0,1-1.17,6.19,0.24,0.24,0,0,0,.08.25,0.232,0.232,0,0,0,.25.04c0.3-.13.61-0.27,0.93-0.41,2.03-.89,4.32-1.9,6.46-1.49a2.157,2.157,0,0,1,1.78,1.06c0.24,0.61-.05,1.5-0.83,2.57a17.517,17.517,0,0,1-4.72,3.93c-0.93.61-1.89,1.24-2.74,1.93-2.69,2.17-4.42,4.88-6.2,8.27a0.235,0.235,0,0,0,0,.23,0.247,0.247,0,0,0,.19.12,20.025,20.025,0,0,0,2.02-.03c2.36-.12,5.02-0.25,5.98,1.68,0.93,1.87-1,4.43-2.52,5.7-1.93,1.6-4.62,1.88-7.23,2.15-2.77.29-5.65,0.59-7.61,2.5a0.193,0.193,0,0,0-.05.09c-1.3,3.54-3.77,5.72-7.34,8.08-4.05,2.68-6.14,6.21-8.57,10.3l-0.08.14c-2.98,5.03-5.56,9.06-8.1,12.68-0.93,1.32-1.95,2.62-2.94,3.88a45.645,45.645,0,0,0-5.46,8.08,0.244,0.244,0,0,0,.03.26v0.01a0.26,0.26,0,0,0,.24.07c2.54-.62,4.3-2.46,6-4.25a14.552,14.552,0,0,1,4.77-3.78c1.09-.45,1.81-0.47,2.16-0.08v0.01c0.97,1.12-.86,5.32-1.89,7.18a36.706,36.706,0,0,1-3.99,5.51l-0.72.88c-1.63,2-1.68,3.47-1.75,5.69l-0.01.37a12.15,12.15,0,0,1-1.93,5.81,13.649,13.649,0,0,1-3.21,3.46,20.27,20.27,0,0,0-2.4,2.27,0.234,0.234,0,0,0-.05.21,0.243,0.243,0,0,0,.14.17,15.749,15.749,0,0,0,3.74.69c3.14,0.35,6.7.74,7.11,3.21a2.515,2.515,0,0,1-.77,2.31c-1.47,1.46-4.42,1.9-5.9,1.64a10.946,10.946,0,0,1-3.11-1.25c3.42,0.86,6.98.5,8.69-2.64a0.263,0.263,0,0,0,.02-0.21,0.248,0.248,0,0,0-.16-0.14c-0.73-.21-1.52-0.45-2.36-0.7-4.74-1.44-10.65-3.23-14.91-2.29a0.256,0.256,0,0,0-.17.15,0.244,0.244,0,0,0,.02.22,11.916,11.916,0,0,0,3.11,2.99,4.379,4.379,0,0,0-2.61.27,8.988,8.988,0,0,0-2.26,1.57,5.9,5.9,0,0,1-3.27,1.75,16.661,16.661,0,0,1-4.21-.24c-0.73-.1-1.49-0.21-2.22-0.26-5.87-.41-10.37.27-14.16,2.14-6.74,3.33-12.78,8.45-18.62,13.41-3.21,2.73-6.54,5.56-9.9,8-1.88,1.36-3.77,2.71-5.65,4.06-3,2.14-6.1,4.35-9.11,6.6-3.98,2.96-8.1,6.03-10.39,10.86a55.54,55.54,0,0,0-3.18,9.64c-0.49,1.84-.99,3.74-1.59,5.54l-0.17.52c-0.68,2.03-1.62,4.8-.53,6.36a2.959,2.959,0,0,0,2.54,1.12c2.99,0.1,6.58-.92,9.74-1.83,1.24-.35,2.41-0.68,3.5-0.94,5.27-1.25,10.7-2.8,16.57-4.74,10.58-3.49,21.08-7.75,31.22-11.87l0.92-.37c2.08-.84,4.21-1.78,6.27-2.68a115.634,115.634,0,0,1,13.02-5.12c2.28-.7,6.43-1.58,8.52.3q0.165,0.15.3,0.3c0.9,1.06,1.15,2.69.73,4.87-1.7,8.92-10.93,13.63-19.45,17.35a362.806,362.806,0,0,1-64.89,21.18c-2.07.47-4.14,0.89-6.14,1.29-8.97,1.81-17.45,3.52-25.13,9.53-0.83.65-1.65,1.3-2.48,1.95-8.39,6.61-16.32,12.85-26.24,16.75a71.943,71.943,0,0,1-30.18,4.88c-9.07-.51-17.34-4.16-25.33-7.69-1.38-.61-2.76-1.22-4.15-1.81-7.49-3.22-16.82-7.22-25.64-5.08-4.31,1.04-8.47,3.26-12.48,5.4-0.97.52-1.93,1.03-2.87,1.51-1.77.91-3.53,1.84-5.29,2.76-3.49,1.83-7.09,3.71-10.69,5.46-5.18,2.52-10.64,4.67-15.92,6.74-5.54,2.17-11.27,4.42-16.7,7.12a64.261,64.261,0,0,0-14.82,10.08c-0.82.74-1.63,1.57-2.42,2.37-2.47,2.52-5.02,5.13-8.39,6.01,2.97-5.46,8.75-9.6,13.86-13.27,0.75-.53,1.48-1.05,2.18-1.57,6.7-4.89,14.02-8.44,20.93-11.55,2.87-1.28,5.8-2.56,8.64-3.79,11.51-4.99,23.4-10.15,33.91-17.58,12.7-8.98,22.18-19.43,28.17-31.07,5.58-10.82,8.22-22.8,10.77-34.38l0.42-1.9c4.58-20.71,10.59-42.01,29-55.04,2.19-1.55,7.63-5,10.85-3.56,1.39,0.62,2.23,2.11,2.5,4.44,1.11,9.53-4.53,18.82-9.51,27.02-0.45.75-.9,1.49-1.34,2.22a342.172,342.172,0,0,0-18.76,36.84l-1.04,2.34a172.561,172.561,0,0,1-8.61,17.48,68.748,68.748,0,0,1-6,8.76c-0.74.9-1.58,1.76-2.38,2.59a28.2,28.2,0,0,0-3.72,4.41,0.242,0.242,0,0,0,.01.27,0.236,0.236,0,0,0,.24.1c3-.59,5.63-2.26,8.17-3.87,0.76-.47,1.54-0.96,2.3-1.41,3.67-2.15,7.54-4.18,11.18-6.08,1.67-.86,3.36-1.71,5.05-2.56a124.606,124.606,0,0,0,16.19-9.16,117.22,117.22,0,0,0,11.28-9.47c1.62-1.49,3.29-3.02,4.97-4.48,1.43-1.23,2.91-2.47,4.34-3.66a103.207,103.207,0,0,0,12.52-11.71c4.78-5.58,8.04-12.26,10.93-18.15l1.24-2.53c2.71-5.52,5.52-11.22,7.77-17.05,1.14-2.94,2-6.02,2.84-8.99a82.963,82.963,0,0,1,3.5-10.62c0.37-.84.79-1.68,1.2-2.49a20.483,20.483,0,0,0,2.33-6.2,16.8,16.8,0,0,0-.94-7.01c-0.1-.37-0.2-0.73-0.3-1.1-0.82-3.05-1.59-6.28-1.18-9.43a21,21,0,0,1,.58-2.56,10.671,10.671,0,0,0,.56-4.86c-0.42-2.2-1.96-3.93-3.44-5.59-0.58-.64-1.12-1.25-1.59-1.87-0.17-.23-0.39-0.5-0.64-0.8-1.39-1.71-3.72-4.56-2.56-6.19,0.42-.6,1.87-1.09,3.45-1.17a3.738,3.738,0,0,1,2.79.67,0.239,0.239,0,0,0,.34.02,0.249,0.249,0,0,0,.03-0.34h-0.01c-0.14-.17-0.34-0.39-0.58-0.66-2.21-2.46-8.05-9-7.28-12.38a2.271,2.271,0,0,1,1.49-1.62c3.53-1.47,8.35,5.72,10.66,9.18,0.32,0.48.6,0.9,0.83,1.23a0.262,0.262,0,0,0,.23.1,0.275,0.275,0,0,0,.2-0.16,69.222,69.222,0,0,0,2.69-12.4c0.05-.31.09-0.67,0.13-1.06,0.2-1.92.48-4.55,2.11-5.22,0.9-.38,2.29.67,3.63,2.75,1.84,2.86,2.77,6.33,1.91,7.14a0.653,0.653,0,0,1-.67.27c-0.8-.26-1.28-2.76-1.51-3.96a5.833,5.833,0,0,0-.24-1.02c-0.49-1.06-1.06-1.56-1.67-1.47-1.11.15-1.83,2.15-2.02,3.37a21.671,21.671,0,0,0,.46,7.12,34.118,34.118,0,0,1,.57,4.2,30.412,30.412,0,0,1-1.24,11.19,0.246,0.246,0,0,0,.12.3,0.253,0.253,0,0,0,.31-0.09,40.9,40.9,0,0,0,5.55-11.6,18.786,18.786,0,0,0,.42-3.35c0.15-2.26.33-4.81,1.39-5.91a0.953,0.953,0,0,1,.93-0.44c0.66,0.24,1.18,2.1,1.36,4.85,0.1,1.59.25,3.19,0.4,4.73,0.08,0.82.16,1.64,0.23,2.46h0a0.248,0.248,0,0,0,.27.22,0.234,0.234,0,0,0,.21-0.27c-0.1-1.18,1.12-2.25,2.19-3.19a11.918,11.918,0,0,0,1.13-1.07,18.39,18.39,0,0,0,3.44-6.91c0.42-1.39.82-2.81,1.21-4.18a73.737,73.737,0,0,1,4.05-11.8c0.35-.75.79-1.51,1.21-2.24a16.558,16.558,0,0,0,2.05-4.49c0.54-2.34-.15-3.78-1.01-5.61l-0.27-.58c-1.59-3.4-1.04-6.63-.46-10.05,0.12-.73.24-1.46,0.35-2.2,0.51-3.53-.52-5.77-1.72-8.37a35.273,35.273,0,0,1-1.46-3.55c-0.66-1.98-.46-6,1.36-7.79a3.036,3.036,0,0,1,3.37-.58,5.188,5.188,0,0,1,1.36.89c0.83,0.67,1.76,1.43,2.95,1.01s1.45-1.46,1.7-2.46a3.722,3.722,0,0,1,.82-1.82,2.015,2.015,0,0,1,1.91-.72c2.31,0.56,4.13,6.08,4.91,8.44l0.29,0.87a0.249,0.249,0,0,0,.44.05c1.15-1.9.53-4.92,0.04-7.35-0.11-.53-0.21-1.03-0.28-1.46-0.09-.52-0.21-1.11-0.34-1.73-0.51-2.53-1.16-5.67-.19-7.65a1.675,1.675,0,0,1,1.69-1.23c0.19-.02.39-0.05,0.63-0.09a3.909,3.909,0,0,1,.99-0.04c0.67,0.03.95-.02,1.81-1.26,0.32-.46.61-0.98,0.89-1.48,0.27-.46.53-0.93,0.82-1.36,1.73-2.59,2.59-4.49,2.53-7.68a24.7,24.7,0,0,1,.92-8.29c2.36-7.63,5.32-12.73,9.03-15.59,1.8-1.38,2.79-1.42,4.82-.23,0.18,0.11.34,0.21,0.5,0.31,1.32,0.8,2.18,1.34,3.67-.62,1.51-1.98,1.87-4.61,2.23-7.16a28.256,28.256,0,0,1,.64-3.6,24.827,24.827,0,0,1,4.91-9.57C2294.67,3485.04,2294.77,3484.91,2294.89,3484.77Zm92.29,35.34c0.08-.19.15-0.39,0.23-0.59a10.043,10.043,0,0,1,1.15-1.67c0.97-1.25,2.07-2.67,1.9-4.37a0.244,0.244,0,0,0-.15-0.2,0.213,0.213,0,0,0-.24.03c-1.45,1.09-2.15,3.2-2.78,5.05-0.11.34-.22,0.66-0.33,0.97a3.25,3.25,0,0,0-.24.63,0.281,0.281,0,0,0,.05.22,0.24,0.24,0,0,0,.12.07A0.227,0.227,0,0,0,2387.18,3520.11Zm-5.06,18.43a0.236,0.236,0,0,0,.05.05,0.23,0.23,0,0,0,.24.01,18.046,18.046,0,0,1,2.38-.89c1.9-.62,3.7-1.2,4.81-3.18a15.079,15.079,0,0,0,1.25-3.51c0.15-.54.29-1.06,0.45-1.56,0.47-1.48,1.57-4.9.37-6.3a0.176,0.176,0,0,1-.04-0.05,2.464,2.464,0,0,0-2.5-.43,0.229,0.229,0,0,0-.15.12c-0.65,1.2-1.39,2.41-2.11,3.59-2.26,3.7-4.59,7.53-4.81,11.99A0.227,0.227,0,0,0,2382.12,3538.54Zm-0.26-3.93a0.242,0.242,0,0,0,.2.06,0.245,0.245,0,0,0,.17-0.11c0.89-1.43,3.29-7.99,1.79-10.31a1.885,1.885,0,0,0-2-.78,0.234,0.234,0,0,0-.21.19c-0.12.68-.31,1.45-0.52,2.26-0.72,2.78-1.6,6.22.21,8.33A4.076,4.076,0,0,0,2381.86,3534.61Zm-54.38,72.78a27.112,27.112,0,0,0,1.87,6.36,35.594,35.594,0,0,0,5.67,9.06c0.53,0.61,1.08,1.21,1.65,1.79a0.316,0.316,0,0,0,.19.07,0.274,0.274,0,0,0,.18-0.1c1.65-2.13,1.5-4.76,1.36-7.3-0.01-.26-0.03-0.52-0.04-0.78-0.05-1.06-.08-2.11-0.11-3.17-0.06-2.05-.12-4.16-0.33-6.24-0.02-.22-0.04-0.46-0.06-0.7-0.21-2.26-.48-5.34-2.62-6.52-1.78-.98-4.62-0.1-6.23,1.27C2326.97,3602.86,2327.15,3605.27,2327.48,3607.39Zm16.21-9.3a0.214,0.214,0,0,0,.07-0.21,18.659,18.659,0,0,1-.16-2.86c-0.03-2.95-.07-6.62-3.18-7.31-4.13-.89-5.32,4.33-6.11,7.78-0.07.33-.14,0.64-0.21,0.94a0.191,0.191,0,0,0,.04.19,0.206,0.206,0,0,0,.17.1,4.86,4.86,0,0,1,.78.13c3.19,0.9,3.63,4.8,4,8.24a21.42,21.42,0,0,0,.65,3.88,0.922,0.922,0,0,0,.05.08,0.247,0.247,0,0,0,.41-0.07,20.744,20.744,0,0,0,1.01-4.14C2341.66,3602.28,2342.13,3599.64,2343.69,3598.09Zm2.05,1.08a0.262,0.262,0,0,0-.16-0.13,0.229,0.229,0,0,0-.21.04c-2.35,1.73-2.85,4.49-3.34,7.16-0.05.27-.1,0.53-0.15,0.8-0.49,2.56-1.04,5.15-1.57,7.65-0.26,1.19-.51,2.38-0.76,3.57a0.263,0.263,0,0,0,.06.21l0.01,0.01a0.231,0.231,0,0,0,.22.07c2.05-.41,3.79-1.9,5.03-4.3C2347.28,3609.55,2347.26,3602.53,2345.74,3599.17Zm22.82-46.82a0.244,0.244,0,0,0-.23-0.06,0.262,0.262,0,0,0-.17.17c-0.97,3.69-2.06,10.56,1.5,15.09a0.01,0.01,0,0,1,.01.01,0.236,0.236,0,0,0,.19.08,0.228,0.228,0,0,0,.19-0.1C2372.45,3564.11,2371.59,3555.33,2368.56,3552.35Zm25.33,2.97c1.47-1.39,3.13-2.96,2.94-5.07a2.355,2.355,0,0,0-1-1.95c-1.1-.64-2.77-0.05-4.26.61a51.168,51.168,0,0,0-6.57,3.8c-0.83.54-1.66,1.08-2.49,1.59-2.58,1.58-4.59,3.06-5.13,6.42a0.208,0.208,0,0,0,.05.2,0.038,0.038,0,0,1,.02.02,0.253,0.253,0,0,0,.21.06c4.75-1.01,10.13-2.15,15-4.49a0.179,0.179,0,0,0,.07-0.05C2393.07,3556.09,2393.47,3555.71,2393.89,3555.32Zm-11.87,12.72c0.58-.41,1.12-0.79,1.62-1.08a0.256,0.256,0,0,0,.1-0.13c0.62-1.74.58-2.92-.08-3.58-1.31-1.33-4.74-.14-7.24.73-0.37.13-.71,0.25-1.02,0.35v-0.04c0.53-3.23,1.07-6.57.28-9.83a0.235,0.235,0,0,0-.19-0.18,0.223,0.223,0,0,0-.24.1c-2.26,3.48-4.67,10.53-1.49,14.62,0.06,0.08.12,0.16,0.18,0.23C2376.35,3572.03,2379.49,3569.82,2382.02,3568.04Zm-14.75,15.41c0.31-.67.63-1.37,0.97-2.03,0.24-.47.5-0.95,0.76-1.42,1.14-2.06,2.31-4.19,2.09-6.61a0.265,0.265,0,0,0-.11-0.18,0.246,0.246,0,0,0-.22-0.02l-0.73.29a0.3,0.3,0,0,0-.13.12c-0.75,1.54-1.68,3.07-2.58,4.55-2.16,3.56-4.4,7.25-4.65,11.55a0.216,0.216,0,0,0,.05.17,0.555,0.555,0,0,0,.08.06,0.23,0.23,0,0,0,.26-0.04C2365.09,3588.18,2366.2,3585.78,2367.27,3583.45Zm-13.17,26.19c0.14-.21.25-0.38,0.34-0.49,0.68-.84,1.42-1.67,2.2-2.54,2.13-2.39,4.33-4.85,5.34-7.82,0.68-1.99.81-4.61-.4-6.02l-0.03-.03a3.365,3.365,0,0,0-3.45-.82c-3.42.74-5.47,6.18-6.07,8.96a27.553,27.553,0,0,0-.45,3.06,30.083,30.083,0,0,1-.46,3.12c-0.03.13-.08,0.3-0.13,0.5-0.31,1.14-.83,3.1-0.1,3.95a1.127,1.127,0,0,0,.52.34C2352.39,3612.15,2353.42,3610.64,2354.1,3609.64Zm-6.86,5.56c0.27-.89.52-1.72,0.84-2.5,0.26-.63.57-1.25,0.9-1.92,0.98-1.97,1.99-4.01,1.56-6.23a0.23,0.23,0,0,0-.12-0.17,0.254,0.254,0,0,0-.19-0.02l-0.89.31a0.189,0.189,0,0,0-.13.1,37.484,37.484,0,0,0-2.8,6.58c-0.23.65-.46,1.3-0.7,1.94-0.18.49-.38,0.99-0.58,1.48a14.255,14.255,0,0,0-1.49,6.25,0.2,0.2,0,0,0,.06.14,0.156,0.156,0,0,0,.08.06,0.229,0.229,0,0,0,.25-0.03C2345.89,3619.71,2346.58,3617.41,2347.24,3615.2Zm16.94-7.14c0.39-.36.76-0.7,1.14-1,0.01,0,.01-0.01.02-0.01,0.39-.39.81-0.76,1.23-1.13a11.7,11.7,0,0,0,3.35-3.98,0.222,0.222,0,0,0-.01-0.21,0.23,0.23,0,0,0-.17-0.12c-5.71-.91-11.67,5.52-13.37,7.52a0.247,0.247,0,0,0-.03.25,0.209,0.209,0,0,0,.04.06,0.26,0.26,0,0,0,.16.09,7.509,7.509,0,0,1,1.62.36,5.326,5.326,0,0,0,2.67.32A7.233,7.233,0,0,0,2364.18,3608.06Zm-16.82,18.06a28.9,28.9,0,0,1,4.58-6.17c0.48-.52,1.01-1.05,1.53-1.55,1.66-1.62,3.37-3.29,4.11-5.56a0.215,0.215,0,0,0-.02-0.19,0.255,0.255,0,0,0-.15-0.12c-2.73-.61-5.34,2.37-7.25,4.55-0.38.44-.73,0.84-1.04,1.16-3.74,3.88-6.64,7.26-7.24,12.36a0.251,0.251,0,0,0,.05.19c0.02,0.01.03,0.03,0.05,0.04a0.249,0.249,0,0,0,.25.01A11.266,11.266,0,0,0,2347.36,3626.12Zm6,1.42c1.75-.02,5.02-0.07,7.08-1.01,1.11-.51,3.35-2.3,3.87-4.06a2.057,2.057,0,0,0-.19-1.76,3.04,3.04,0,0,0-2.28-1.2,10.615,10.615,0,0,0-6.91,1.67l-0.19.17c-2.26,1.99-4.3,4.02-3.81,5.28a1.052,1.052,0,0,0,.18.31A2.877,2.877,0,0,0,2353.36,3627.54Zm-36.55,42.74h0c0.42-.46.97-1,1.55-1.58,2.01-1.98,4.51-4.44,4.82-6.62,0.16-1.08-.01-1.75-0.51-2.06-1.02-.64-2.99.57-4.92,1.87-0.27.19-.51,0.35-0.69,0.46a0.234,0.234,0,0,0-.07.07c-0.54.78-1.18,1.54-1.79,2.27a18.523,18.523,0,0,0-3.12,4.64c-0.55,1.31-.6,2.22-0.18,2.72a1.213,1.213,0,0,0,.24.2C2313.17,3672.9,2315.49,3671.73,2316.81,3670.28Zm-6.35,8.19c0.37-.86.9-2.5,0.27-3.7a2.435,2.435,0,0,0-1.77-1.23,4.148,4.148,0,0,0-2.46.49,3.1,3.1,0,0,1-2.47.35,0.234,0.234,0,0,0-.31.11c-0.35.73-.71,1.45-1.07,2.17-1.71,3.39-3.47,6.89-3.27,10.92l0.02,0.33c0.04,1.08.1,2.67,0.73,3.41a1.288,1.288,0,0,0,.17.16,1.5,1.5,0,0,0,1.45.48c0.66-.26.8-1.27,0.93-2.16,0.03-.22.06-0.43,0.09-0.6,0.45-2.21,2.13-3.95,3.92-5.79A17.459,17.459,0,0,0,2310.46,3678.47Zm8.05,3.01a35.975,35.975,0,0,0,3.78-4.92c0.61-.9,1.24-1.83,1.9-2.7,0.22-.29.49-0.6,0.77-0.93,1.06-1.2,2.37-2.7,1.87-4.37a0.262,0.262,0,0,0-.13-0.16,0.3,0.3,0,0,0-.21.01,25.671,25.671,0,0,0-4.18,2.93,26.313,26.313,0,0,1-4.05,2.85c-0.31.17-.62,0.33-0.93,0.5a17.83,17.83,0,0,0-5.25,3.59,46.93,46.93,0,0,0-5.63,8.15c-0.68,1.15-1.38,2.33-2.1,3.45a0.256,0.256,0,0,0-.01.24c0.01,0.02.02,0.03,0.03,0.05a0.25,0.25,0,0,0,.18.08c2,0.07,3.74-1.19,5.27-2.31,0.35-.26.69-0.51,1.03-0.74,0.53-.35,1.05-0.7,1.58-1.05A35.257,35.257,0,0,0,2318.51,3681.48Zm-9.86,14.16c2.83-.43,6.05-0.92,8.04-2.52a5.172,5.172,0,0,0,.55-0.5c1.41-1.49,3.73-6.07,2.27-8.01a1.616,1.616,0,0,0-1.18-.7c-1.12-.07-2.3,1.17-3.08,1.99l-0.22.23c-2.65,2.75-4.94,5.14-8.62,6.4-0.85.28-1.76,0.49-2.73,0.71-2.6.6-5.29,1.22-6.89,3.45a0.287,0.287,0,0,0-.03.22,0.218,0.218,0,0,0,.05.08,0.259,0.259,0,0,0,.11.07c2.47,0.71,5,.06,7.44-0.57,0.44-.11.87-0.22,1.3-0.32C2306.52,3695.96,2307.55,3695.8,2308.65,3695.64Zm-21.82,3.22a2.109,2.109,0,0,0,1.39.63,1.6,1.6,0,0,1,1.08.46,0.01,0.01,0,0,1,.01.01,0.977,0.977,0,0,1,.2.74,1.283,1.283,0,0,0,.6,1.26c0.87,0.58,3.13.59,4.95,0.59,0.72,0,1.34.01,1.74,0.04,2.49,0.24,5.63.19,7.91-2.28a0.224,0.224,0,0,0,.06-0.21,0.244,0.244,0,0,0-.13-0.17c-2.12-1.04-4.44-1.02-6.68-1a15.77,15.77,0,0,1-5.88-.7,16.128,16.128,0,0,1,2.86-2.64c1.99-1.57,4.05-3.2,4.26-5.49,0.11-1.2-.14-1.96-0.74-2.27-1.6-.85-5.16,1.92-8.37,4.58-0.35.29-.65,0.54-0.9,0.73,0.11-.47.24-1,0.39-1.6,0.85-3.42,2-8.12-.34-10.23a2.308,2.308,0,0,0-2.26-.62c-1.36.4-2.49,2.11-2.9,3.6-0.65,2.36-.15,4.89.34,7.34,0.21,1.06.41,2.06,0.52,3.03a0.233,0.233,0,0,0,.1.17,0.2,0.2,0,0,0,.18.04,1.011,1.011,0,0,1,.87.13,2.618,2.618,0,0,1,.33,1.81,3.409,3.409,0,0,0,.27,1.85A1.73,1.73,0,0,0,2286.83,3698.86Zm-152.17,11.31a55.218,55.218,0,0,1-4.43,10.43c-1.08,2.1-2.19,4.28-3.1,6.5-2.35,5.75-3.5,11.9-4.6,17.85l-0.24,1.25c-1.79,9.61-6.17,18.39-10.41,26.88-1.26,2.53-2.57,5.15-3.79,7.75l-1.17.98a0.237,0.237,0,0,0-.04.33,0.251,0.251,0,0,0,.33.05c7.07-4.96,11.23-13.21,14.68-21.39q1.17-2.775,2.32-5.57c2.84-6.85,5.77-13.93,9.25-20.63,3.12-6.05,6.62-12.02,10-17.8,0.72-1.23,1.43-2.45,2.14-3.67,0.43-.74.87-1.48,1.31-2.22,3.37-5.7,6.85-11.6,7.84-18.19,0.4-2.74.6-6.5-2.4-7.53-2.85-.98-6.4,1.43-8.51,2.87l-0.12.08a50.086,50.086,0,0,0-15.64,17.89c-3.82,7.14-5.98,14.99-8.07,22.59-2.42,8.81-4.75,17.68-6.5,24.43-1.97,7.57-4.01,15.41-7.59,22.47a90.891,90.891,0,0,1-8.6,13.03c-1.73,2.32-3.52,4.72-5.14,7.16a0.24,0.24,0,0,0,.01.29l0.03,0.03a0.23,0.23,0,0,0,.31,0c6.8-5.81,11.8-13.55,15.95-20.35,3.78-6.21,7.99-13.68,10.46-22.01,0.99-3.36,1.75-6.83,2.48-10.18a109.575,109.575,0,0,1,3.48-13.22c0.99-2.81,2.18-5.59,3.33-8.29,0.47-1.1.94-2.19,1.4-3.3,0.19-.44.36-0.89,0.55-1.34C2131.25,3714.64,2132.35,3711.85,2134.66,3710.17Zm90.88,35.19c5.26-11.04,8.1-23.19,10.86-34.94,0.98-4.2,2-8.55,3.11-12.75,1.76-6.7,3.62-14.46,3.23-21.88-0.1-1.93-.34-6.45-3.6-7.17-5.1-1.11-7.99,6.48-9.55,10.56q-0.2.51-.36,0.93c-4.81,12.23-7.61,25.57-10.31,38.48q-0.9,4.275-1.81,8.49c-0.8,3.66-1.76,7.98-2.85,12.29-0.24.97-.55,1.95-0.87,2.99a28.891,28.891,0,0,0-1.5,6.59,4.137,4.137,0,0,0,.64,2.95,1.741,1.741,0,0,0,.54.43c2.45,1.24,7.99-3.3,10.96-5.74,0.62-.5,1.11-0.9,1.43-1.14A0.236,0.236,0,0,0,2225.54,3745.36Zm-29.71,23.63c-1.05.49-2.17,0.93-3.25,1.35a25.646,25.646,0,0,0-6.67,3.41,0.237,0.237,0,0,0-.09.22,0.31,0.31,0,0,0,.06.13,0.146,0.146,0,0,0,.09.06,16.176,16.176,0,0,0,5.63.77c0.84,0.02,1.7.04,2.54,0.11,0.69,0.07,1.38.19,2.11,0.31a12.853,12.853,0,0,0,4.7.24c4.02-.81,6.69-8.6,6.55-12.34a0.265,0.265,0,0,0-.12-0.2,0.256,0.256,0,0,0-.24-0.01c-1.23.65-2.46,1.32-3.69,1.99C2200.98,3766.38,2198.41,3767.77,2195.83,3768.99Zm25.38-4.21c0.2-.64.41-1.27,0.61-1.91,1.46-4.47,2.96-9.1,3.33-13.89a0.215,0.215,0,0,0-.11-0.22,0.211,0.211,0,0,0-.24-0.01,20.8,20.8,0,0,0-3.89,2.55c-0.77.58-1.61,1.17-2.41,1.73-3.32,2.33-6.76,4.74-8.53,8.59a31.947,31.947,0,0,0-1.83,5.89c-0.18.76-.36,1.51-0.56,2.25-0.08.28-.16,0.57-0.25,0.85-0.41,1.39-.8,2.7-0.19,3.56a0.313,0.313,0,0,0,.09.11,2.558,2.558,0,0,0,1.93.72C2216.76,3775.41,2219.52,3770.06,2221.21,3764.78Zm-101.03,50.41a0.251,0.251,0,0,0,.04.24,0.179,0.179,0,0,0,.07.05c10.81,6.12,25.31,7.37,40.82,3.54a76.711,76.711,0,0,0,22.49-9.43,98.026,98.026,0,0,0,8.99-6.65c0.54-.44,1.08-0.87,1.62-1.3,0.77-.61,1.59-1.22,2.39-1.8,2.44-1.78,4.96-3.63,6.61-6.17a0.219,0.219,0,0,0,.03-0.22,0.259,0.259,0,0,0-.17-0.14c-6.45-1.44-12.8-.11-18.89,3.96-2.01,1.35-4,2.77-5.94,4.15a102.894,102.894,0,0,1-14.93,9.37c-12.17,5.81-27.39,7.32-42.86,4.25A0.233,0.233,0,0,0,2120.18,3815.19Zm-25.73-12.72a0.2,0.2,0,0,0,.06.15,0.146,0.146,0,0,0,.09.06c3.49,1.48,7.16,2.64,10.71,3.76,0.98,0.31,1.97.63,2.95,0.94,2.21,0.72,4.41,1.59,6.54,2.44,1.82,0.72,3.7,1.47,5.59,2.11a55.825,55.825,0,0,0,25.15,2.16c7.39-.97,14.72-3.55,23.05-8.13,5.32-2.92,11.33-6.48,15.36-11.82a0.249,0.249,0,0,0,.04-0.22,0.27,0.27,0,0,0-.17-0.16,28.16,28.16,0,0,0-8.18-.53c-0.68.02-1.36,0.04-2.03,0.05-3.86.05-7.76-.07-11.53-0.19-2.23-.06-4.5-0.17-6.69-0.27-5.45-.24-11.09-0.5-16.64-0.26-8.06.34-16,2.06-23,3.58-1.12.24-2.25,0.47-3.38,0.71-6.02,1.24-12.23,2.52-17.79,5.4A0.248,0.248,0,0,0,2094.45,3802.47Zm25.35-16.42c-1.16.42-2.32,0.83-3.48,1.24l-2.07.72c-6.18,2.14-12.57,4.35-17.58,8.76a0.26,0.26,0,0,0-.06.29,0.176,0.176,0,0,0,.04.05,0.239,0.239,0,0,0,.23.08c5.74-1.22,11.19-3.56,16.46-5.82,3.17-1.36,6.45-2.76,9.75-3.91a101.1,101.1,0,0,1,27.49-5.13c9.02-.5,18.22-0.13,27.11.23l2.87,0.12c1.79,0.07,3.57.15,5.36,0.23,3.14,0.15,6.4.29,9.6,0.38,0.84,0.02,1.68.03,2.52,0.04a51.938,51.938,0,0,1,10.18.82c-2.72,1.19-5.8,1-8.78.81-0.54-.03-1.07-0.07-1.6-0.09-3.25-.16-6.56-0.23-9.75-0.29l-4-.09c-2.36-.06-4.73-0.13-7.09-0.2-6.67-.2-13.56-0.41-20.34-0.36a110.718,110.718,0,0,0-26.27,2.92c-3.46.87-6.87,2.04-10.17,3.18-0.78.27-1.57,0.54-2.35,0.81-0.68.23-1.57,0.43-2.52,0.64-2.63.59-5.62,1.26-6.81,3.03a0.242,0.242,0,0,0,0,.27,0.254,0.254,0,0,0,.24.11c2.54-.45,5.12-0.97,7.61-1.46,5.38-1.07,10.94-2.17,16.49-2.73a171.354,171.354,0,0,1,21.6-.3l2.76,0.08c3.18,0.08,6.35.18,9.53,0.28,11.82,0.36,24.04.74,36.03,0.44,13.2-.32,26.22-3.59,39.51-7.19,14.99-4.07,29.33-9.38,42.73-14.48,1.21-.46,2.44-0.91,3.67-1.36,5.16-1.88,10.5-3.83,15.14-6.87,4.55-2.99,7.26-7.51,8.52-14.23a0.244,0.244,0,0,0-.23-0.29c-6.38.02-12.17,2.63-17.76,5.14-1.17.53-2.34,1.06-3.51,1.56-7.83,3.36-15.8,6.43-23.69,9.12-14.54,4.98-29.48,8.19-43.53,11.06l-2.21.45c-6.4,1.32-13.02,2.69-19.65,2.98-4.1.18-8.27,0.03-12.31-.11-3.1-.1-6.3-0.21-9.46-0.18-1.23.02-2.46,0.03-3.7,0.04-12.7.12-25.83,0.24-38.36,3.4C2131.79,3781.79,2125.7,3783.96,2119.8,3786.05Zm81.91-87.01c-0.25.8-.45,1.43-0.58,1.76-1.12,2.93-2.49,5.83-3.82,8.63-2.19,4.65-4.47,9.46-5.71,14.59a0.253,0.253,0,0,0,.06.21,0.218,0.218,0,0,0,.09.07,0.228,0.228,0,0,0,.29-0.1,140.429,140.429,0,0,0,7.56-14.61c0.55-1.18,1.11-2.35,1.67-3.53l0.17-.37c2.54-5.3,5.15-10.78,5.87-16.81a0.238,0.238,0,0,0-.05-0.18h0a0.246,0.246,0,0,0-.17-0.08C2205.19,3688.47,2203.32,3693.92,2201.71,3699.04Zm42.67-78.58a0.243,0.243,0,0,0-.11-0.2,0.246,0.246,0,0,0-.22-0.02l-1.62.68c-0.02.01-.04,0.03-0.06,0.04a9.08,9.08,0,0,0-3.22,9.8,0.135,0.135,0,0,0,.05.09,0.183,0.183,0,0,0,.1.07,0.223,0.223,0,0,0,.21-0.02C2242.94,3628.6,2244.43,3624,2244.38,3620.46Zm-3.42,15.76,0.84-3.13a0.218,0.218,0,0,0-.04-0.22h-0.01a0.2,0.2,0,0,0-.21-0.08c-2.98.42-4.76,2.59-6.48,4.7l-0.31.38a0.24,0.24,0,0,0-.01.29l0.02,0.02a0.235,0.235,0,0,0,.25.07l5.79-1.87A0.217,0.217,0,0,0,2240.96,3636.22Zm-5.54,5.7,0.32-.29c0.64-.59,1.19-1.1,1.03-1.58a1.162,1.162,0,0,0-1.08-.5c-1.21-.09-2.68.86-3.85,1.63-0.41.26-.79,0.51-1.12,0.68-0.61.34-1.23,0.67-1.85,1-2.02,1.08-4.12,2.2-6.11,3.44a0.23,0.23,0,0,0-.1.28,0.2,0.2,0,0,0,.04.08,0.272,0.272,0,0,0,.21.09,29.21,29.21,0,0,0,8.49-2.12A12.964,12.964,0,0,0,2235.42,3641.92Zm12.47-5.09c0.07-.1.17-0.21,0.26-0.33a3.088,3.088,0,0,0,1.06-2.15,1.293,1.293,0,0,0-.68-0.9c-0.91-.55-2,0.17-2.88.75a6.386,6.386,0,0,1-.75.46,0.154,0.154,0,0,0-.06.04c-0.77.72-1.64,1.41-2.49,2.08-2.16,1.7-4.4,3.47-5.39,6.13a0.219,0.219,0,0,0,.03.22,0.02,0.02,0,0,1,.01.02,0.217,0.217,0,0,0,.2.08C2241.06,3643.08,2244.65,3640.92,2247.89,3636.83Zm-8.01,8.36a0.232,0.232,0,0,0,.02-0.24,0.248,0.248,0,0,0-.22-0.13,29.573,29.573,0,0,0-8.07,1.47,41.863,41.863,0,0,1-5.45,1.27l-0.12.02c-1.63.23-5.45,0.77-6.12,2.61a2.579,2.579,0,0,0,.81,2.54,1.059,1.059,0,0,1,.1.12c1.68,1.86,5.17.75,7.48,0.01,0.35-.11.66-0.21,0.94-0.3A18.421,18.421,0,0,0,2239.88,3645.19Zm-27.09,14.11c0.18,1.61.24,3.28,0.29,4.89a34.269,34.269,0,0,0,1.14,9.2,0.218,0.218,0,0,0,.05.08,0.23,0.23,0,0,0,.33.04,19.682,19.682,0,0,0,4.27-5.35c0.51-.82,1.04-1.67,1.6-2.46,0.52-.72,1.09-1.44,1.64-2.13a21.117,21.117,0,0,0,3.87-6.26,0.219,0.219,0,0,0-.03-0.22,0.278,0.278,0,0,0-.2-0.1c-2.8.1-3.81,1.67-4.98,3.49-0.21.32-.42,0.65-0.65,0.98a16.42,16.42,0,0,1-.74-6.49,20.538,20.538,0,0,0-.41-5.57,0.22,0.22,0,0,0-.15-0.16,0.246,0.246,0,0,0-.22.02c-2.04,1.41-3.06,3.62-4.04,5.77-0.15.33-.31,0.66-0.46,0.99a18.808,18.808,0,0,1,.07-5.35,22.32,22.32,0,0,0,.17-4.77,0.258,0.258,0,0,0-.15-0.2,0.249,0.249,0,0,0-.25.04C2210.28,3648.84,2210.62,3655.03,2212.79,3659.3Zm-6.95-28.37a1.764,1.764,0,0,0-1.55.82c-0.76,1.33.51,3.83,1.35,5.48,0.13,0.26.25,0.49,0.33,0.67a0.209,0.209,0,0,0,.04.06l0.01,0.01,4.53,4.32a0.232,0.232,0,0,0,.25.05,0.24,0.24,0,0,0,.16-0.19c0.61-4.75.16-8.05-1.36-9.81-0.04-.05-0.09-0.1-0.13-0.15A4.322,4.322,0,0,0,2205.84,3630.93Zm5.14-6.55c-0.59-.98-4.76-5.53-6.51-5.02q-0.81.24-.78,1.62c0.05,1.98,1.67,4.06,2.97,5.73,0.31,0.4.6,0.77,0.85,1.12l0.05,0.07c0.55,0.76,1.06,1.42,1.53,1.97,1.2,1.39,2.17,2.11,2.93,2.19a1.09,1.09,0,0,0,.9-0.29C2214.41,3630.39,2211.02,3624.44,2210.98,3624.38Zm17.26-1.14a6.711,6.711,0,0,0-1.81-5.83,0.241,0.241,0,0,0-.39.19l-0.01,7.45a0.277,0.277,0,0,0,.05.16,0.138,0.138,0,0,0,.04.03,0.208,0.208,0,0,0,.2.05A2.515,2.515,0,0,0,2228.24,3623.24Zm-2,5.08a1.389,1.389,0,0,0-1.15-.56c-1.06.01-1.9,1.79-2.51,3.08-0.18.37-.33,0.68-0.44,0.88-0.3.49-.63,0.99-0.96,1.5a21.714,21.714,0,0,0-1.99,3.5,10.469,10.469,0,0,0-.42,1.41,5.433,5.433,0,0,1-1.13,2.65,0.2,0.2,0,0,0-.06.07,9.236,9.236,0,0,1-.67,1.07c-0.15.22-.29,0.43-0.43,0.65,0.35-2.81.69-5.65,1.01-8.41l0.46-3.82c0.04-.39.09-0.79,0.15-1.18,0.4-3.08.82-6.25-.68-9.05a0.221,0.221,0,0,0-.23-0.13,0.265,0.265,0,0,0-.21.16,80.486,80.486,0,0,0-3.13,12.5c-0.23,1.24-.47,2.47-0.73,3.7l-0.05.26c-0.4,1.91-1.14,5.44.19,6.99a0.679,0.679,0,0,0,.12.12,2.593,2.593,0,0,0,2.38.57c-0.03.27-.08,0.53-0.12,0.8-0.24,1.52-.48,3.08.27,4.5,0.01,0.01.02,0.03,0.03,0.04a0.285,0.285,0,0,0,.14.08,0.232,0.232,0,0,0,.21-0.06c2.82-2.53,4.62-5.81,6.35-8.99,0.47-.85.94-1.7,1.43-2.55l0.32-.56a19.722,19.722,0,0,0,2.2-4.64C2226.81,3632.12,2227.14,3629.48,2226.24,3628.32Zm3.28,1.33c-0.33.68-.63,1.31-0.93,1.84-0.72,1.28-1.53,2.55-2.32,3.78a36.676,36.676,0,0,0-4.6,8.96,0.229,0.229,0,0,0,.04.21,0.01,0.01,0,0,0,.01.01,0.214,0.214,0,0,0,.18.09c2.37,0.05,4.32-1.32,6.21-2.65,0.73-.51,1.42-0.99,2.13-1.4,3.1-2.76,6.46-6.07,7.42-10.74,0.23-1.13.87-4.91-.65-6.25a2.307,2.307,0,0,0-2.4-.23C2232.22,3624.1,2230.73,3627.18,2229.52,3629.65Zm78.63-141.2a12.084,12.084,0,0,1,1.53-2.61,27.06,27.06,0,0,1,3.89-3.51c0.46-.36.91-0.72,1.36-1.09a0.236,0.236,0,0,0,.05-0.05,35.138,35.138,0,0,0,2.75-4.91,0.231,0.231,0,0,0-.02-0.24,0.235,0.235,0,0,0-.22-0.1c-3.38.36-6.08,2.33-8.69,4.23-0.75.55-1.53,1.12-2.31,1.63a0.249,0.249,0,0,0-.11.16,0.256,0.256,0,0,0,.04.19c1.25,1.69.54,4.22-.08,6.46a18.625,18.625,0,0,0-.63,2.81,0.2,0.2,0,0,0,.06.18,0.134,0.134,0,0,0,.07.06,0.227,0.227,0,0,0,.27-0.04A9.8,9.8,0,0,0,2308.15,3488.45Zm-8.01,8.94c3.41-5.49,6.68-11.39,5.08-13.49-0.62-.82-1.9-0.94-3.88-0.34a0.248,0.248,0,0,0-.16.14c-0.36,1-.82,2.02-1.26,3.02-1.73,3.89-3.52,7.91-.85,11.77a0.038,0.038,0,0,0,.02.02,0.192,0.192,0,0,0,.19.08,0.231,0.231,0,0,0,.2-0.11C2299.63,3498.21,2299.86,3497.84,2300.14,3497.39Zm-3.55.58a0.244,0.244,0,0,0-.16.18l-2.36,9.69a0.239,0.239,0,0,0,.04.2l0.01,0.01a0.261,0.261,0,0,0,.17.09c0.97,0.05,1.87-.78,2.52-2.35,1.06-2.57,1.29-6.6.02-7.77A0.3,0.3,0,0,0,2296.59,3497.97Zm17.47-9.38a0.255,0.255,0,0,0-.07-0.25,0.244,0.244,0,0,0-.26-0.03c-0.46.2-.97,0.37-1.47,0.54a14.3,14.3,0,0,0-1.82.71,6.154,6.154,0,0,0-2.08,1.93c-0.17.22-.35,0.46-0.55,0.69a14.6,14.6,0,0,1-2.22,2c-0.47.37-.95,0.74-1.39,1.14-3.03,2.73-4.65,5.35-5.13,8.25a0.252,0.252,0,0,0,.06.2l0.03,0.03a0.232,0.232,0,0,0,.24.03C2305.08,3501.59,2312.12,3495.28,2314.06,3488.59Zm-0.46,7.9v-0.01a0.238,0.238,0,0,0-.19-0.28,0.293,0.293,0,0,0-.22.07c-0.13.07-.69,0.29-1.19,0.48a12.183,12.183,0,0,0-2.56,1.14,39.532,39.532,0,0,0-3.57,3.87,0.225,0.225,0,0,0-.02.27,0.076,0.076,0,0,0,.02.04,0.265,0.265,0,0,0,.22.08C2309.12,3501.66,2312.89,3500.29,2313.6,3496.49Zm-4.49,9.33a0.27,0.27,0,0,0,.04-0.23,0.254,0.254,0,0,0-.16-0.16c-4.36-1.34-6.15-.42-9.72,1.4l-0.85.43a0.189,0.189,0,0,0-.11.12l-1.29,3.01a0.216,0.216,0,0,0,.01.22l0.03,0.03a0.214,0.214,0,0,0,.17.08C2302.43,3510.84,2306.31,3509.24,2309.11,3505.82Zm-21.68,18.36a0.183,0.183,0,0,0,.1.07,0.233,0.233,0,0,0,.26-0.06c1.38-1.51,3.02-3.5,2.97-4.35a0.587,0.587,0,0,0-.18-0.38,0.247,0.247,0,0,0-.34.03c-0.24.28-.51,0.55-0.8,0.85-1.01,1.02-2.16,2.19-2.07,3.7A0.2,0.2,0,0,0,2287.43,3524.18Zm-2.84,2.32a0.219,0.219,0,0,0-.1.09c-0.19.28-.38,0.57-0.57,0.85a20.4,20.4,0,0,0-2.62,4.73,0.264,0.264,0,0,0,.05.24c0.01,0.01.02,0.01,0.03,0.02a0.225,0.225,0,0,0,.27.03c2.39-1.29,3.68-3.9,4.63-6.28a0.236,0.236,0,0,0-.06-0.27,0.245,0.245,0,0,0-.26-0.04Zm18.46-7.75a0.737,0.737,0,0,0,.12-0.46,8.26,8.26,0,0,0,2.07-3.41c0.21-.5.4-0.98,0.62-1.43a0.227,0.227,0,0,0-.03-0.27h0a0.233,0.233,0,0,0-.27-0.06,31.044,31.044,0,0,0-2.89,1.43,19.882,19.882,0,0,1-4.18,1.88,12.538,12.538,0,0,1,1.53-3.17,0.225,0.225,0,0,0-.01-0.28,0.243,0.243,0,0,0-.26-0.09c-2.25.69-3.65,2.46-5,4.18-0.33.42-.65,0.84-0.99,1.24-0.26.3-.54,0.61-0.82,0.92-1.22,1.33-2.47,2.7-2.66,4.54a0.211,0.211,0,0,0,.06.18l0.01,0.01a0.22,0.22,0,0,0,.2.07C2292.01,3523.85,2301.96,3520.64,2303.05,3518.75Zm-18.63,30.49c0.68-.83,1.33-1.73,1.96-2.6,0.3-.42.6-0.83,0.9-1.24,1.91-2.57,3.74-5.4,4.14-8.69a0.265,0.265,0,0,0-.08-0.22,0.222,0.222,0,0,0-.22-0.04c-2.99.79-5.03,3.13-7,5.4-0.57.65-1.11,1.27-1.68,1.86-0.31.32-.63,0.64-0.96,0.95a10.469,10.469,0,0,0-2.67,3.37,8.814,8.814,0,0,0-.54,3.15c-0.03.53-.06,1.07-0.13,1.6a0.216,0.216,0,0,0,.05.19l0.05,0.05a0.244,0.244,0,0,0,.26,0,9.311,9.311,0,0,0,1.21-.94,6.77,6.77,0,0,1,1.6-1.13c0.39-.17.72-0.28,1.02-0.38A3.853,3.853,0,0,0,2284.42,3549.24Zm-11.57,11.13c2.31-3.89,3.09-8.04,2.15-11.41a0.254,0.254,0,0,0-.34-0.15c-0.06.03-.19,0.09-0.37,0.16-1.15.47-2.39,1.03-2.58,1.62a0.473,0.473,0,0,0-.03.23c-0.61.53-1.29,1.02-2.01,1.55-2.21,1.62-4.51,3.3-5.29,5.96a9.837,9.837,0,0,0-.26,2.9,13.785,13.785,0,0,1-.06,1.93,18.924,18.924,0,0,1-.94,3.49c-0.17.5-.34,0.99-0.49,1.49a0.275,0.275,0,0,0,.05.23h0.01a0.221,0.221,0,0,0,.23.07C2266.66,3567.57,2270.37,3564.55,2272.85,3560.37Zm8.48,21.23a0.216,0.216,0,0,0,.15-0.17c0.38-1.62.24-2.8-.43-3.62a0.218,0.218,0,0,0-.04-0.05c-1.13-1.31-3.42-1.37-6.28-1.3-3.82.1-8.65,0.68-12.14,4.35a0.235,0.235,0,0,0-.05.24,0.2,0.2,0,0,0,.04.08,0.237,0.237,0,0,0,.15.09c0.56,0.09,1.14.19,1.71,0.28C2270.04,3582.45,2275.83,3583.44,2281.33,3581.6Zm-37.69-1.89a14.207,14.207,0,0,0,2.97,10.08h0l0.04,0.04c0.45,0.31.9,0.64,1.36,0.97,2.8,2.04,5.71,4.16,9.42,2.51,1.8-.79,6.53-3.81,5.9-6.52a2.3,2.3,0,0,0-1.02-1.59c-0.92-.51-2.21-0.08-3.45.34-1.49.5-2.93,0.96-3.66-.04-0.71-.98-0.13-2.73.34-4.14a12.606,12.606,0,0,0,.38-1.24,15.235,15.235,0,0,0,.08-6.78,0.243,0.243,0,0,0-.4-0.13,21.8,21.8,0,0,0-4.44,6.25,33.222,33.222,0,0,1-2.65,4.29,22.122,22.122,0,0,1,.1-4.14c0.23-2.56.46-5.21-.96-7.53a0.245,0.245,0,0,0-.17-0.11,0.288,0.288,0,0,0-.2.05A11.074,11.074,0,0,0,2243.64,3579.71Zm1.56-22.07a14.266,14.266,0,0,1-1.55-.68,0.222,0.222,0,0,0-.21-0.01,0.283,0.283,0,0,0-.14.18l-0.03.18c-0.82,4.2-1.19,6.11,1.19,10.08a0.142,0.142,0,0,0,.02.04,0.053,0.053,0,0,1,.03.02,9.059,9.059,0,0,1,.74.81c0.79,0.96,1.76,2.13,3.05,1.59,1.26-.53,1.13-2.29,1.04-3.57-0.02-.27-0.03-0.51-0.03-0.71-0.01-.35.01-0.72,0.02-1.08a7.965,7.965,0,0,0-.74-4.53A6.249,6.249,0,0,0,2245.2,3557.64Zm8.26-4.44a0.228,0.228,0,0,0-.19-0.07,0.245,0.245,0,0,0-.18.11c-1.96,3.13-1.98,6.23-1.99,9.81v0.12c-0.02,2.73-.15,5.51-0.27,8.19-0.07,1.54-.15,3.09-0.2,4.63a0.227,0.227,0,0,0,.06.16,0.237,0.237,0,0,0,.15.09,0.252,0.252,0,0,0,.27-0.19,6.483,6.483,0,0,1,1.66-2.32c0.31-.33.6-0.64,0.79-0.89a18.414,18.414,0,0,0,3.24-7.33C2257.8,3560.63,2256.65,3556.38,2253.46,3553.2Zm4.44,16.07-0.03.39c-0.07.8-.15,1.62-0.24,2.45a35.375,35.375,0,0,0-.09,9.8,0.22,0.22,0,0,0,.05.12,0.555,0.555,0,0,0,.08.06,0.244,0.244,0,0,0,.22-0.01,29.774,29.774,0,0,0,7.04-5.85c0.95-.98,1.94-2,2.96-2.92,0.54-.47,1.08-0.95,1.62-1.42,2.82-2.46,5.75-5,7.35-8.56a0.257,0.257,0,0,0-.03-0.24,0.246,0.246,0,0,0-.22-0.1c-3.6.41-6.45,2.64-9.21,4.79-2.78,2.17-5.4,4.22-8.67,4.5,2.23-3.28,4.2-6.57,4.52-10.34,0.12-1.45.17-3.17-.63-3.66a1.266,1.266,0,0,0-1.36.19C2258.65,3560.1,2258.15,3566.29,2257.9,3569.27Zm1.96-27.19a0.251,0.251,0,0,0-.25-0.06,0.237,0.237,0,0,0-.16.2l-0.01.09c-0.6,4.51-1.28,9.63,1.48,13.62,0.01,0.01.01,0.02,0.02,0.03a0.256,0.256,0,0,0,.19.08,0.237,0.237,0,0,0,.2-0.13C2263.1,3552.63,2262.63,3544.92,2259.86,3542.08Zm10.04-8.11c-0.4.58-.8,1.15-1.21,1.69-0.43.57-.89,1.12-1.34,1.68a18.67,18.67,0,0,0-3.81,6.15,20.908,20.908,0,0,0-.41,7.33c0.04,0.59.07,1.17,0.09,1.73a4.4,4.4,0,0,0,.44,2.33,0.876,0.876,0,0,0,.24.19c0.45,0.23,1.09.02,2.27-.74a0.219,0.219,0,0,0,.09-0.1,27.645,27.645,0,0,1,1.67-2.83,18.484,18.484,0,0,0,2.37-4.59,17.966,17.966,0,0,0,.53-3.13,15.438,15.438,0,0,1,.6-3.31,20.4,20.4,0,0,1,1.92-3.82c1.42-2.39,2.89-4.87,2.23-7.87a0.291,0.291,0,0,0-.14-0.17,0.225,0.225,0,0,0-.21.01C2272.88,3529.71,2271.37,3531.88,2269.9,3533.97Zm11.57-27.67a0.259,0.259,0,0,0-.13-0.19,0.217,0.217,0,0,0-.22,0c-8.19,4.39-12.19,15.63-11.91,24.46a0.339,0.339,0,0,0,.06.15,0.156,0.156,0,0,0,.08.06,0.23,0.23,0,0,0,.24-0.01,13.5,13.5,0,0,0,1.92-1.87c1.8-1.95,4.04-4.37,5.9-3.2,2,1.24.43,4.74-.72,7.3a17.682,17.682,0,0,0-.8,1.94,0.243,0.243,0,0,0,.44.19,65.014,65.014,0,0,1,4.15-5.81,45.635,45.635,0,0,0,5.68-8.66,6.627,6.627,0,0,0,.43-3.17,8.058,8.058,0,0,1,.18-2.42c0.14-.53.34-1.03,0.54-1.57a8.4,8.4,0,0,0,.81-3.54c-0.05-.9-0.19-2.09-0.93-2.19-1.51-.2-3.9,5.25-4.19,6.16a43.953,43.953,0,0,0-1.25,5.49,29.214,29.214,0,0,1-2.27,7.96c-0.53-3.63.22-7.29,0.94-10.82C2281.1,3513.22,2281.81,3509.77,2281.47,3506.3Zm9.01,6.02a2.574,2.574,0,0,0,.38.61,1.15,1.15,0,0,0,1.3.4,2.174,2.174,0,0,0,1.29-1.19c1.39-2.88-.71-9.81-1.35-11.5a0.248,0.248,0,0,0-.15-0.15,0.236,0.236,0,0,0-.2.03C2289.8,3501.73,2289.22,3509.6,2290.48,3512.32Zm2-22.03c-0.79,2.47-1.28,6.06.93,9.14a0.01,0.01,0,0,1,.01.01,0.248,0.248,0,0,0,.33.04,0.241,0.241,0,0,0,.05-0.34c-0.2-.47,1.32-3.96,1.97-5.45,0.35-.8.63-1.43,0.72-1.71,0.14-.44.31-0.91,0.49-1.38a11.025,11.025,0,0,0,1.02-4.41,2.888,2.888,0,0,0-.56-1.63h-0.01a0.038,0.038,0,0,0-.02-0.02,1.217,1.217,0,0,0-1.21-.51C2294.56,3484.35,2293.05,3488.51,2292.48,3490.29Z" transform="translate(-1995.53 -3473.16)"/>
</svg>
