<svg id="deco-fv-reserve.svg" xmlns="http://www.w3.org/2000/svg" width="192.38" height="57" viewBox="0 0 192.38 57">
  <defs>
    <style>
      .cls-1 {
        fill: #222;
        fill-rule: evenodd;
      }
    </style>
  </defs>
  <path id="Reserve_and_Contact_のコピー" data-name="Reserve and Contact のコピー" class="cls-1" d="M2013.57,1836.22l8.46,9.14,1.9-1.75-3.47-3.74,6.64,0.81,2.49-2.31-6.54-.48a5.315,5.315,0,0,0,1.07-1.69,3.79,3.79,0,0,0,.22-1.88,3.251,3.251,0,0,0-.88-1.75,3.87,3.87,0,0,0-1.52-1.05,3.656,3.656,0,0,0-1.64-.19,4.607,4.607,0,0,0-1.61.48,6.305,6.305,0,0,0-1.42.98Zm5.1-1.43a3.357,3.357,0,0,1,1.51-.85,1.4,1.4,0,0,1,1.41.49,1.448,1.448,0,0,1,.39,1.39,3.02,3.02,0,0,1-.99,1.54,7.324,7.324,0,0,1-.87.69,6.7,6.7,0,0,1-.88.5l-2.14-2.31Zm8.62-5.87a4.866,4.866,0,0,0-.25,2.48,5,5,0,0,0,1.02,2.37,4.526,4.526,0,0,0,2.05,1.6,4.8,4.8,0,0,0,2.49.29,5.082,5.082,0,0,0,2.4-1.01,4.581,4.581,0,0,0,1.31-1.48,5.485,5.485,0,0,0,.59-1.43l-1.3-1.76a7.03,7.03,0,0,1-.57,1.47,4.12,4.12,0,0,1-1.24,1.44,2.865,2.865,0,0,1-1.8.63,2.5,2.5,0,0,1-1.66-.67l5.43-4.07-0.6-.8a5.317,5.317,0,0,0-1.88-1.63,4.029,4.029,0,0,0-2.21-.4,4.494,4.494,0,0,0-2.24.94A4.34,4.34,0,0,0,2027.29,1828.92Zm4.2-.83a1.957,1.957,0,0,1,1.49.75l-3.59,2.7a2.862,2.862,0,0,1-.22-1.65,2.106,2.106,0,0,1,.85-1.31A2.472,2.472,0,0,1,2031.49,1828.09Zm5.17-6.17a3.149,3.149,0,0,0-.52,1.56,2.68,2.68,0,0,0,.43,1.56,2.89,2.89,0,0,0,1.17,1.09,2.652,2.652,0,0,0,1.79.07l1.19-.26a4.549,4.549,0,0,1,1.01-.15,0.651,0.651,0,0,1,.56.31,0.81,0.81,0,0,1,.05.81,1.881,1.881,0,0,1-.78.79,4.525,4.525,0,0,1-.91.4,6.728,6.728,0,0,1-1.08.24,4.74,4.74,0,0,1-.97.05l1.1,1.75a4.516,4.516,0,0,0,1.49-.16,5.519,5.519,0,0,0,1.72-.72,4.246,4.246,0,0,0,1.34-1.29,3.374,3.374,0,0,0,.55-1.6,2.551,2.551,0,0,0-.4-1.58,2.507,2.507,0,0,0-3.12-.97l-1.09.26a1.965,1.965,0,0,1-.95.08,0.8,0.8,0,0,1-.48-0.35,0.85,0.85,0,0,1-.04-0.81,1.7,1.7,0,0,1,.74-0.81,3.286,3.286,0,0,1,1.27-.46,6.979,6.979,0,0,1,1.23-.09l-1.11-1.76a3.783,3.783,0,0,0-1.29.1,4.766,4.766,0,0,0-1.51.63A4.5,4.5,0,0,0,2036.66,1821.92Zm9-4.89a4.935,4.935,0,0,0-.68,2.4,5.158,5.158,0,0,0,.6,2.51,4.739,4.739,0,0,0,1.74,1.93,4.879,4.879,0,0,0,2.41.72,5.113,5.113,0,0,0,2.54-.58,4.55,4.55,0,0,0,1.55-1.24,5.365,5.365,0,0,0,.82-1.3l-0.98-1.97a5.588,5.588,0,0,1-.81,1.35,4.143,4.143,0,0,1-1.46,1.21,2.915,2.915,0,0,1-1.89.31,2.491,2.491,0,0,1-1.52-.94l6.06-3.07-0.46-.9a5.315,5.315,0,0,0-1.57-1.92,4.092,4.092,0,0,0-2.11-.78,4.61,4.61,0,0,0-2.38.54A4.453,4.453,0,0,0,2045.66,1817.03Zm4.28-.09a1.917,1.917,0,0,1,1.34,1l-4,2.03a2.81,2.81,0,0,1,.07-1.66,2.069,2.069,0,0,1,1.06-1.14A2.443,2.443,0,0,1,2049.94,1816.94Zm10.52-7.11a2.5,2.5,0,0,0-.91.18,2.277,2.277,0,0,0-1.17,1.08,5.169,5.169,0,0,0-.53,1.72l-0.67-1.63-2.18.88,3.54,8.69,2.19-.88-1.98-4.86a4.96,4.96,0,0,1,.38-1.56,1.817,1.817,0,0,1,1.05-1,2.422,2.422,0,0,1,1.28-.16Zm9.2-3-0.62,6.28-3.98-4.86-2.63.82,6.99,7.66,1.43-.44,1.44-10.28Zm7.06-1.36a4.972,4.972,0,0,0-1.27,2.14,5.217,5.217,0,0,0-.08,2.58,4.737,4.737,0,0,0,1.19,2.31,4.862,4.862,0,0,0,2.14,1.32,5.107,5.107,0,0,0,2.61.09,4.6,4.6,0,0,0,1.82-.78,5.939,5.939,0,0,0,1.13-1.05l-0.44-2.15a6.244,6.244,0,0,1-1.13,1.09,4.1,4.1,0,0,1-1.73.79,2.948,2.948,0,0,1-1.9-.19,2.48,2.48,0,0,1-1.23-1.3l6.65-1.4-0.21-.98a5.38,5.38,0,0,0-1.02-2.27,4.024,4.024,0,0,0-1.84-1.29,4.53,4.53,0,0,0-2.44-.09A4.379,4.379,0,0,0,2076.72,1805.47Zm4.17,1.02a1.923,1.923,0,0,1,1.03,1.31l-4.39.93a2.782,2.782,0,0,1,.5-1.59,2.1,2.1,0,0,1,1.32-.83A2.571,2.571,0,0,1,2080.89,1806.49Zm14.62-3.96a4.245,4.245,0,0,0-1.49,1.79,6.419,6.419,0,0,0,.28,5.33,4.252,4.252,0,0,0,1.62,1.59,4,4,0,0,0,2.12.46,3.063,3.063,0,0,0,1.79-.64,3.75,3.75,0,0,0,1.12-1.37l0.08,1.58,2.36-.12-0.51-9.37-2.36.12,0.06,1.06a3.809,3.809,0,0,0-1.35-.88,3.626,3.626,0,0,0-1.56-.27A4.1,4.1,0,0,0,2095.51,1802.53Zm4.06,1.8a4.674,4.674,0,0,1,1.13.8l0.07,1.34a2.958,2.958,0,0,1-.26,1.47,2.6,2.6,0,0,1-.84.98,2.248,2.248,0,0,1-1.16.4,2.134,2.134,0,0,1-1.74-.66,2.688,2.688,0,0,1-.74-1.76,3.036,3.036,0,0,1,.23-1.34,2.547,2.547,0,0,1,.77-1.03,2.151,2.151,0,0,1,1.25-.45A2.686,2.686,0,0,1,2099.57,1804.33Zm7.96-2.53-0.48,9.37,2.36,0.13,0.3-5.94a4.082,4.082,0,0,1,.99-0.91,1.976,1.976,0,0,1,1.2-.35,1.676,1.676,0,0,1,1.22.53,1.969,1.969,0,0,1,.39,1.44l-0.26,5.43,2.35,0.13,0.3-5.75a3.954,3.954,0,0,0-.82-2.94,3.251,3.251,0,0,0-2.34-1.1,3.019,3.019,0,0,0-1.71.41,4.8,4.8,0,0,0-1.21,1.02l0.07-1.34Zm20.1-1.96-0.79,4.98a3.934,3.934,0,0,0-2.6-1.73,4.077,4.077,0,0,0-2.27.25,4.27,4.27,0,0,0-1.82,1.44,5.538,5.538,0,0,0-1,2.55,5.728,5.728,0,0,0,.15,2.71,4.241,4.241,0,0,0,1.26,1.9,4,4,0,0,0,1.97.9,3.055,3.055,0,0,0,1.88-.26,3.608,3.608,0,0,0,1.38-1.1l-0.24,1.56,2.33,0.37,2.08-13.2Zm-2.07,6.12a4.183,4.183,0,0,1,.95,1.01l-0.21,1.32a2.886,2.886,0,0,1-.57,1.38,2.447,2.447,0,0,1-1.03.79,2.307,2.307,0,0,1-2.78-.86,2.7,2.7,0,0,1-.35-1.88,3,3,0,0,1,.5-1.25,2.7,2.7,0,0,1,.97-0.84,2.154,2.154,0,0,1,1.32-.17A2.674,2.674,0,0,1,2125.56,1805.96Zm19.13-.7a6.58,6.58,0,0,0-2.41.6,6.376,6.376,0,0,0-2.01,1.5,6.714,6.714,0,0,0-1.32,2.33,6.588,6.588,0,0,0-.33,2.67,6.2,6.2,0,0,0,.72,2.4,6.476,6.476,0,0,0,1.57,1.93,6.69,6.69,0,0,0,2.25,1.25,6.053,6.053,0,0,0,2.12.34,4.607,4.607,0,0,0,1.79-.37l0.78-2.38a7.1,7.1,0,0,1-1.75.41,5.172,5.172,0,0,1-2.1-.3,3.948,3.948,0,0,1-2.68-2.98,4,4,0,0,1,.14-2.13,3.981,3.981,0,0,1,2.99-2.72,3.833,3.833,0,0,1,2.09.13,4.317,4.317,0,0,1,1.29.64,4.977,4.977,0,0,1,.87.84c0.24,0.3.46,0.6,0.67,0.91l0.82-2.47a4.645,4.645,0,0,0-1.14-1.3,5.378,5.378,0,0,0-1.82-.95A6.543,6.543,0,0,0,2144.69,1805.26Zm10.21,7.35a5.034,5.034,0,0,0-2.39.88,4.768,4.768,0,0,0-1.65,2.02,4.7,4.7,0,0,0-.38,2.57,5.026,5.026,0,0,0,.95,2.36,4.873,4.873,0,0,0,2.02,1.62,4.777,4.777,0,0,0,2.56.42,5.168,5.168,0,0,0,2.39-.87,4.872,4.872,0,0,0,2.03-4.59,5.272,5.272,0,0,0-.95-2.38,4.934,4.934,0,0,0-2.03-1.62A4.882,4.882,0,0,0,2154.9,1812.61Zm2.64,3.29a2.439,2.439,0,0,1,.48,1.21,3.125,3.125,0,0,1-1.17,2.65,2.413,2.413,0,0,1-1.22.44,2.632,2.632,0,0,1-1.26-.22,2.7,2.7,0,0,1-1.01-.79,2.284,2.284,0,0,1-.48-1.2,3.2,3.2,0,0,1,1.17-2.64,2.408,2.408,0,0,1,1.21-.46A2.638,2.638,0,0,1,2157.54,1815.9Zm7.97,1.32-4.72,8.09,2.04,1.19,2.99-5.12a4.193,4.193,0,0,1,1.3-.36,1.941,1.941,0,0,1,1.22.24,1.674,1.674,0,0,1,.85,1.04,1.93,1.93,0,0,1-.31,1.44l-2.73,4.71,2.04,1.19,2.9-4.97a3.909,3.909,0,0,0,.62-2.98,3.246,3.246,0,0,0-1.58-2.05,2.944,2.944,0,0,0-1.71-.42,4.652,4.652,0,0,0-1.54.35l0.67-1.16Zm14.12,5.62a6.5,6.5,0,0,1-2.31,1.18,4,4,0,0,1-2.03.02l-0.7.98,1.38,0.98-2.69,3.8a3.018,3.018,0,0,0-.63,2.26,2.71,2.71,0,0,0,1.21,1.85,3.1,3.1,0,0,0,1.22.57,2.728,2.728,0,0,0,1.06.03l1.08-1.53a2.607,2.607,0,0,1-.73-0.13,3.058,3.058,0,0,1-.77-0.41,1.062,1.062,0,0,1-.5-0.8,1.591,1.591,0,0,1,.34-0.97l2.34-3.3,2.12,1.5,1.14-1.6-2.12-1.51,1.57-2.22Zm5.67,8.14a4.252,4.252,0,0,0-2.32.27,5.683,5.683,0,0,0-2.18,1.64,5.59,5.59,0,0,0-1.29,2.39,4.142,4.142,0,0,0,.07,2.27,3.969,3.969,0,0,0,1.22,1.8,3.053,3.053,0,0,0,1.74.77,3.765,3.765,0,0,0,1.75-.22l-1.03,1.2,1.79,1.54,6.11-7.11-1.8-1.53-0.68.8a3.734,3.734,0,0,0-.38-1.57,3.6,3.6,0,0,0-.94-1.27A4.155,4.155,0,0,0,2185.3,1830.98Zm1.69,4.11a4.156,4.156,0,0,1,.27,1.35l-0.87,1.02a2.916,2.916,0,0,1-1.21.88,2.692,2.692,0,0,1-1.28.13,2.274,2.274,0,0,1-1.12-.52,2.187,2.187,0,0,1-.81-1.67,2.684,2.684,0,0,1,.69-1.79,3.106,3.106,0,0,1,1.08-.8,2.586,2.586,0,0,1,1.28-.21,2.014,2.014,0,0,1,1.21.54A2.6,2.6,0,0,1,2186.99,1835.09Zm8.93,5.42a5.064,5.064,0,0,0-3.75-.02,5.072,5.072,0,0,0-1.6,1.04,4.907,4.907,0,0,0-1.4,4.66,4.679,4.679,0,0,0,1.27,2.3,4.161,4.161,0,0,0,1.4,1.02,4.492,4.492,0,0,0,1.2.32l1.55-1.49a4.5,4.5,0,0,1-1.18-.38,4.144,4.144,0,0,1-1.19-.9,2.665,2.665,0,0,1,1.31-4.4,2.686,2.686,0,0,1,1.35.03,2.651,2.651,0,0,1,1.16.71,4.2,4.2,0,0,1,.85,1.23,4.856,4.856,0,0,1,.32,1.2l1.57-1.51a6.017,6.017,0,0,0-.27-1.21,3.822,3.822,0,0,0-.94-1.47A4.773,4.773,0,0,0,2195.92,1840.51Zm9.27,6.04a6.667,6.667,0,0,1-2.55.52,4.016,4.016,0,0,1-1.96-.53l-0.93.76,1.07,1.31-3.62,2.94a3.071,3.071,0,0,0-1.22,2.01,2.785,2.785,0,0,0,.67,2.1,3.252,3.252,0,0,0,1.03.88,3.212,3.212,0,0,0,1.02.31l1.45-1.18a2.784,2.784,0,0,1-.67-0.33,2.905,2.905,0,0,1-.63-0.6,1.074,1.074,0,0,1-.27-0.9,1.578,1.578,0,0,1,.59-0.85l3.14-2.55,1.64,2.02,1.53-1.24-1.65-2.02,2.12-1.72Z" transform="translate(-2013.56 -1799.84)"/>
</svg>
